# This file uses centimeters as units for non-parametric coordinates.

mtllib train_seats.mtl
g default
v 4329.223633 0.136600 2713.498535
v 4329.224121 0.136600 2368.164795
v 5339.714355 0.136600 2368.164795
v 5339.714355 0.136600 2713.498535
v 4329.223633 5.136600 2718.498535
v 5339.714355 5.136600 2718.498535
v 5339.714355 15.140100 2718.498535
v 4329.223633 15.140100 2718.498535
v 5344.714355 5.136600 2713.498535
v 5344.714355 5.136600 2368.164795
v 5344.714355 15.140100 2368.164795
v 5344.714355 15.140100 2713.498535
v 5339.714355 5.136600 2363.164795
v 4329.224121 5.136600 2363.164795
v 4329.224121 15.140100 2363.164795
v 5339.714355 15.140100 2363.164795
v 4324.224121 5.136600 2368.164795
v 4324.223633 5.136600 2713.498535
v 4324.223633 15.140100 2713.498535
v 4324.224121 15.140100 2368.164795
v 4336.295410 20.140100 2713.498535
v 5332.643555 20.140100 2713.498535
v 5329.714355 20.140100 2708.498535
v 4339.224121 20.140100 2708.498535
v 5339.714355 20.140100 2706.427246
v 5339.714355 20.140100 2373.975586
v 5334.714355 20.140100 2376.662842
v 5334.714355 20.140100 2703.498535
v 5332.396973 20.140100 2367.691650
v 4336.542480 20.140100 2367.691650
v 4339.224609 20.140100 2371.662842
v 5329.714355 20.140100 2371.662842
v 4329.224121 20.140100 2373.975098
v 4329.223633 20.140100 2706.427979
v 4334.224121 20.140100 2703.498535
v 4334.224609 20.140100 2376.662842
v 5329.714355 301.452209 2839.916504
v 4339.224121 301.452209 2839.916504
v 5334.714355 301.452209 2376.662598
v 5334.714355 301.452209 2834.916504
v 4339.224121 301.452209 2371.662598
v 5329.714355 301.452209 2371.662598
v 4334.224121 301.452209 2834.916504
v 4334.224121 301.452209 2376.662598
v 4318.990234 306.452209 2861.897949
v 5350.109375 306.452209 2861.897949
v 5350.109375 336.900391 2861.897949
v 4318.990234 336.900391 2861.897949
v 5355.109375 306.452209 2856.897949
v 5355.109375 306.452209 2363.224365
v 5355.109375 336.900391 2363.224365
v 5355.109375 336.900391 2856.897949
v 5350.109375 306.452209 2358.224365
v 4318.990234 306.452209 2358.224365
v 4318.990234 336.900391 2358.224365
v 5350.109375 336.900391 2358.224365
v 4313.990234 306.452209 2363.224365
v 4313.990234 306.452209 2856.897949
v 4313.990234 336.900391 2856.897949
v 4313.990234 336.900391 2363.224365
v 4318.990234 301.452209 2849.083252
v 4318.990234 301.452209 2367.547363
v 4330.556152 301.452209 2363.224365
v 5338.433105 301.452209 2363.224365
v 5350.109375 301.452209 2367.506592
v 5350.109375 301.452209 2849.157959
v 5343.649414 301.452209 2856.897949
v 4325.388672 301.452209 2856.897949
v 4325.388672 341.900391 2856.897949
v 5343.649414 341.900391 2856.897949
v 5329.714355 341.900391 2839.916504
v 4339.224121 341.900391 2839.916504
v 5350.109375 341.900391 2849.157959
v 5350.109375 341.900391 2367.506592
v 5334.714355 341.900391 2376.662598
v 5334.714355 341.900391 2834.916504
v 5338.433105 341.900391 2363.224365
v 4330.556152 341.900391 2363.224365
v 4339.224121 341.900391 2371.662598
v 5329.714355 341.900391 2371.662598
v 4318.990234 341.900391 2367.547363
v 4318.990234 341.900391 2849.083252
v 4334.224121 341.900391 2834.916504
v 4334.224121 341.900391 2376.662598
v 4339.223633 432.744202 2834.916504
v 5329.714844 432.744202 2834.916504
v 5329.714844 432.744202 2500.056152
v 4339.223633 432.744202 2500.056152
v 5329.714844 427.744202 2839.916504
v 4339.223633 427.744202 2839.916504
v 5334.714844 427.744202 2496.698242
v 5334.714844 427.744202 2834.916504
v 5329.714844 767.631775 2441.230957
v 5329.714844 767.631775 2376.662598
v 4339.223633 767.631775 2376.662598
v 4339.223633 767.631775 2441.230957
v 4334.223633 427.744202 2834.916504
v 4334.223633 427.744202 2496.698242
v 4339.223633 762.631775 2371.662598
v 5329.714844 762.631775 2371.662598
v 4334.223633 351.790314 2376.662598
v 4334.223633 434.991913 2489.675781
v 4334.223633 762.631775 2441.907227
v 4334.223633 762.631775 2376.662598
v 4339.223633 437.691895 2494.334961
v 5329.714844 437.691895 2494.334961
v 5329.714844 762.684082 2446.952393
v 4339.223633 762.684082 2446.952393
v 5334.714844 434.991913 2489.675781
v 5334.714844 351.790314 2376.662598
v 5334.714844 762.631775 2376.662598
v 5334.714844 762.631775 2441.907227
vt 0.027200 0.366200
vt 0.027200 0.200300
vt 0.497500 0.200300
vt 0.497500 0.366200
vt 0.030400 0.141900
vt 0.500400 0.141900
vt 0.500400 0.146200
vt 0.030400 0.146200
vt 0.822700 0.410100
vt 0.988500 0.410100
vt 0.988500 0.414800
vt 0.822700 0.414800
vt 0.030400 0.172800
vt 0.500400 0.172700
vt 0.500400 0.177000
vt 0.030400 0.177100
vt 0.516500 0.386300
vt 0.682400 0.386300
vt 0.682400 0.390900
vt 0.516500 0.390900
vt 0.033500 0.149500
vt 0.497300 0.149500
vt 0.496100 0.151900
vt 0.034700 0.151900
vt 0.825900 0.418100
vt 0.985800 0.418100
vt 0.984600 0.420400
vt 0.827300 0.420400
vt 0.033600 0.180100
vt 0.497200 0.180100
vt 0.496100 0.182100
vt 0.034700 0.182100
vt 0.519200 0.394200
vt 0.679100 0.394200
vt 0.677700 0.396600
vt 0.520400 0.396600
vt 0.027200 0.141700
vt 0.029900 0.138900
vt 0.500900 0.138900
vt 0.503600 0.141700
vt 0.503500 0.172400
vt 0.500800 0.169600
vt 0.029900 0.169700
vt 0.027200 0.172500
vt 0.029500 0.151900
vt 0.027500 0.147000
vt 0.503300 0.147000
vt 0.501300 0.151900
vt 0.503300 0.177800
vt 0.501200 0.182100
vt 0.029600 0.182200
vt 0.027500 0.177800
vt 0.682400 0.383000
vt 0.516500 0.383000
vt 0.988500 0.406800
vt 0.822700 0.406800
vt 0.031700 0.153700
vt 0.499100 0.153700
vt 0.031800 0.183900
vt 0.499100 0.183900
vt 0.514700 0.775700
vt 0.975700 0.775700
vt 0.975700 0.920300
vt 0.514700 0.920300
vt 0.824400 0.438000
vt 0.981700 0.438000
vt 0.981700 0.568900
vt 0.763200 0.568900
vt 0.514700 0.630800
vt 0.975700 0.630800
vt 0.975700 0.761800
vt 0.514700 0.761800
vt 0.518000 0.433200
vt 0.675300 0.433200
vt 0.736500 0.564100
vt 0.518000 0.564100
vt 0.821200 0.437500
vt 0.760000 0.568500
vt 0.739700 0.563700
vt 0.678500 0.432700
vt 0.985000 0.438000
vt 0.985000 0.568900
vt 0.514700 0.433200
vt 0.514700 0.564100
vt 0.030100 0.094800
vt 0.510100 0.094800
vt 0.510100 0.108400
vt 0.030100 0.108400
vt 0.760200 0.591700
vt 0.990100 0.591700
vt 0.990100 0.605900
vt 0.760200 0.605900
vt 0.030100 0.042600
vt 0.510100 0.042600
vt 0.510100 0.056200
vt 0.030100 0.056200
vt 0.514700 0.592800
vt 0.744600 0.592800
vt 0.744600 0.607000
vt 0.514700 0.607000
vt 0.741000 0.589500
vt 0.516800 0.589500
vt 0.521000 0.582500
vt 0.734400 0.582500
vt 0.504900 0.039500
vt 0.035400 0.039500
vt 0.039500 0.035700
vt 0.500900 0.035700
vt 0.988100 0.588400
vt 0.763800 0.588400
vt 0.770500 0.581200
vt 0.983800 0.581200
vt 0.507300 0.091800
vt 0.032900 0.091800
vt 0.039300 0.084000
vt 0.500900 0.084000
vt 0.032900 0.111400
vt 0.507300 0.111400
vt 0.500900 0.119200
vt 0.039300 0.119200
vt 0.763800 0.611200
vt 0.988100 0.611200
vt 0.983800 0.618400
vt 0.770500 0.618400
vt 0.035400 0.059300
vt 0.504900 0.059300
vt 0.500900 0.063100
vt 0.039500 0.063100
vt 0.516800 0.610300
vt 0.741000 0.610300
vt 0.734400 0.617400
vt 0.521000 0.617400
vt 0.027200 0.094000
vt 0.029500 0.088600
vt 0.510700 0.088600
vt 0.513000 0.094000
vt 0.513000 0.041800
vt 0.510500 0.037900
vt 0.029800 0.037900
vt 0.027200 0.041800
vt 0.029500 0.114600
vt 0.027200 0.109200
vt 0.513000 0.109200
vt 0.510700 0.114600
vt 0.513000 0.057100
vt 0.510400 0.060900
vt 0.029800 0.060900
vt 0.027200 0.057100
vt 0.036900 0.081800
vt 0.503200 0.033500
vt 0.037100 0.033500
vt 0.503300 0.081800
vt 0.036900 0.121400
vt 0.503300 0.121400
vt 0.037100 0.065400
vt 0.503200 0.065400
vt 0.030700 0.607500
vt 0.491700 0.607500
vt 0.491800 0.763300
vt 0.030500 0.763300
vt 0.518000 0.933800
vt 0.979200 0.933800
vt 0.979200 0.973800
vt 0.518000 0.973800
vt 0.760700 0.081800
vt 0.974100 0.081800
vt 0.918200 0.121700
vt 0.760700 0.121700
vt 0.030600 0.589200
vt 0.030700 0.559200
vt 0.491700 0.559200
vt 0.491900 0.589200
vt 0.532300 0.081800
vt 0.745700 0.081800
vt 0.745700 0.121700
vt 0.588200 0.121700
vt 0.030500 0.780100
vt 0.491700 0.780100
vt 0.491700 0.976000
vt 0.030500 0.976000
vt 0.532300 0.086400
vt 0.584900 0.125100
vt 0.562700 0.277700
vt 0.532300 0.277700
vt 0.030700 0.385200
vt 0.492200 0.385200
vt 0.492000 0.538200
vt 0.031000 0.538200
vt 0.921500 0.125100
vt 0.974100 0.086400
vt 0.974100 0.277700
vt 0.943700 0.277700
vt 0.495000 0.780100
vt 0.495000 0.784700
vt 0.030300 0.604400
vt 0.027600 0.607100
vt 0.494800 0.607100
vt 0.492100 0.604400
vt 0.027200 0.784700
vt 0.027200 0.780100
vt 0.495100 0.380400
vt 0.495700 0.384800
vt 0.491900 0.381600
vt 0.027900 0.380400
vt 0.031100 0.381600
vt 0.027200 0.384800
vt 0.030300 0.556100
vt 0.027600 0.558700
vt 0.494800 0.558700
vt 0.492100 0.556100
vt 0.030600 0.541500
vt 0.027900 0.538900
vt 0.495000 0.538900
vt 0.492300 0.541500
vt 0.495100 0.764800
vt 0.982500 0.933800
vt 0.982500 0.973800
vt 0.514700 0.973800
vt 0.514700 0.933800
vt 0.027200 0.764800
vt 0.495200 0.589400
vt 0.027200 0.589400
vt 0.027200 0.976000
vt 0.495000 0.976000
vn -0.341602 -0.875605 0.341502
vn -0.341590 -0.875575 -0.341590
vn 0.341590 -0.875575 -0.341590
vn 0.341590 -0.875575 0.341590
vn -0.341590 -0.341590 0.875575
vn 0.341590 -0.341590 0.875575
vn 0.368015 0.434918 0.821834
vn -0.368015 0.434918 0.821834
vn 0.875575 -0.341590 0.341590
vn 0.875575 -0.341590 -0.341590
vn 0.830018 0.419709 -0.367308
vn 0.821834 0.434918 0.368015
vn 0.341590 -0.341590 -0.875575
vn -0.341590 -0.341590 -0.875575
vn -0.372187 0.428986 -0.823072
vn 0.372187 0.428986 -0.823072
vn -0.875605 -0.341602 -0.341502
vn -0.875575 -0.341590 0.341590
vn -0.821834 0.434918 0.368015
vn -0.830018 0.419709 -0.367308
vn -0.089198 0.920183 0.381193
vn 0.089198 0.920183 0.381193
vn 0.315406 0.670113 0.671913
vn -0.315385 0.669968 0.672068
vn 0.381193 0.920182 0.089198
vn 0.380908 0.917420 -0.115103
vn 0.549111 0.804216 -0.227405
vn 0.618616 0.763819 0.184105
vn 0.078301 0.910911 -0.405105
vn -0.078202 0.910918 -0.405108
vn -0.227405 0.804217 -0.549111
vn 0.227487 0.804154 -0.549169
vn -0.380908 0.917420 -0.115103
vn -0.381193 0.920182 0.089198
vn -0.618616 0.763819 0.184105
vn -0.549169 0.804154 -0.227487
vn -0.341590 -0.341590 0.875575
vn -0.875575 -0.341590 0.341590
vn -0.341602 -0.875605 0.341502
vn 0.341590 -0.875575 0.341590
vn 0.875575 -0.341590 0.341590
vn 0.341590 -0.341590 0.875575
vn -0.875605 -0.341602 -0.341502
vn -0.341590 -0.341590 -0.875575
vn -0.341590 -0.875575 -0.341590
vn 0.341590 -0.875575 -0.341590
vn 0.341590 -0.341590 -0.875575
vn 0.875575 -0.341590 -0.341590
vn -0.368015 0.434918 0.821834
vn -0.089198 0.920183 0.381193
vn -0.381193 0.920182 0.089198
vn -0.821834 0.434918 0.368015
vn 0.821834 0.434918 0.368015
vn 0.381193 0.920182 0.089198
vn 0.089198 0.920183 0.381193
vn 0.368015 0.434918 0.821834
vn -0.830018 0.419709 -0.367308
vn -0.380908 0.917420 -0.115103
vn -0.078202 0.910918 -0.405108
vn -0.372187 0.428986 -0.823072
vn 0.372187 0.428986 -0.823072
vn 0.078301 0.910911 -0.405105
vn 0.380908 0.917420 -0.115103
vn 0.830018 0.419709 -0.367308
vn -0.341602 -0.875605 0.341502
vn -0.875575 -0.341590 0.341590
vn -0.875605 -0.341602 -0.341502
vn -0.341590 -0.875575 -0.341590
vn -0.341590 -0.875575 -0.341590
vn -0.341590 -0.341590 -0.875575
vn 0.341590 -0.341590 -0.875575
vn 0.341590 -0.875575 -0.341590
vn 0.341590 -0.875575 -0.341590
vn 0.875575 -0.341590 -0.341590
vn 0.875575 -0.341590 0.341590
vn 0.341590 -0.875575 0.341590
vn 0.341590 -0.875575 0.341590
vn 0.341590 -0.341590 0.875575
vn -0.341590 -0.341590 0.875575
vn -0.341602 -0.875605 0.341502
vn -0.089198 0.920183 0.381193
vn -0.368015 0.434918 0.821834
vn 0.368015 0.434918 0.821834
vn 0.089198 0.920183 0.381193
vn 0.381193 0.920182 0.089198
vn 0.821834 0.434918 0.368015
vn 0.830018 0.419709 -0.367308
vn 0.380908 0.917420 -0.115103
vn 0.078301 0.910911 -0.405105
vn 0.372187 0.428986 -0.823072
vn -0.372187 0.428986 -0.823072
vn -0.078202 0.910918 -0.405108
vn -0.380908 0.917420 -0.115103
vn -0.830018 0.419709 -0.367308
vn -0.821834 0.434918 0.368015
vn -0.381193 0.920182 0.089198
vn 0.341590 -0.341590 0.875575
vn 0.875575 -0.341590 0.341590
vn 0.821834 0.434918 0.368015
vn 0.368015 0.434918 0.821834
vn -0.368015 0.434918 0.821834
vn -0.821834 0.434918 0.368015
vn -0.875575 -0.341590 0.341590
vn -0.341590 -0.341590 0.875575
vn 0.875575 -0.341590 -0.341590
vn 0.341590 -0.341590 -0.875575
vn 0.372187 0.428986 -0.823072
vn 0.830018 0.419709 -0.367308
vn -0.341590 -0.341590 -0.875575
vn -0.875605 -0.341602 -0.341502
vn -0.830018 0.419709 -0.367308
vn -0.372187 0.428986 -0.823072
vn -0.381193 0.920182 0.089198
vn -0.089198 0.920183 0.381193
vn -0.315385 0.669968 0.672068
vn -0.618616 0.763819 0.184105
vn 0.089198 0.920183 0.381193
vn 0.381193 0.920182 0.089198
vn 0.618616 0.763819 0.184105
vn 0.315406 0.670113 0.671913
vn 0.380908 0.917420 -0.115103
vn 0.078301 0.910911 -0.405105
vn 0.227487 0.804154 -0.549169
vn 0.549111 0.804216 -0.227405
vn -0.078202 0.910918 -0.405108
vn -0.380908 0.917420 -0.115103
vn -0.549169 0.804154 -0.227487
vn -0.227405 0.804217 -0.549111
vn -0.315385 0.669968 0.672068
vn 0.315406 0.670113 0.671913
vn 0.153300 -0.899201 0.409800
vn -0.153300 -0.899201 0.409800
vn 0.618616 0.763819 0.184105
vn 0.549111 0.804216 -0.227405
vn 0.549169 -0.804154 -0.227487
vn 0.454591 -0.857982 0.239195
vn 0.227487 0.804154 -0.549169
vn -0.227405 0.804217 -0.549111
vn -0.227487 -0.804154 -0.549169
vn 0.227405 -0.804217 -0.549111
vn -0.549169 0.804154 -0.227487
vn -0.618616 0.763819 0.184105
vn -0.454591 -0.857982 0.239195
vn -0.549111 -0.804216 -0.227405
vn 0.315406 0.670113 0.671913
vn 0.618616 0.763819 0.184105
vn 0.454591 -0.857982 0.239195
vn 0.153300 -0.899201 0.409800
vn -0.153300 -0.899201 0.409800
vn -0.454591 -0.857982 0.239195
vn -0.618616 0.763819 0.184105
vn -0.315385 0.669968 0.672068
vn 0.549111 0.804216 -0.227405
vn 0.227487 0.804154 -0.549169
vn 0.227405 -0.804217 -0.549111
vn 0.549169 -0.804154 -0.227487
vn -0.227405 0.804217 -0.549111
vn -0.549169 0.804154 -0.227487
vn -0.549111 -0.804216 -0.227405
vn -0.227487 -0.804154 -0.549169
vn -0.367791 -0.426990 0.826081
vn 0.367803 -0.427703 0.825706
vn 0.367803 0.427703 0.825706
vn -0.367791 0.426990 0.826081
vn 0.817858 -0.442377 0.367981
vn 0.841011 -0.399705 -0.364605
vn 0.841011 0.399705 -0.364605
vn 0.817858 0.442377 0.367981
vn 0.364494 -0.478793 -0.798688
vn -0.364592 -0.477890 -0.799183
vn -0.364592 0.477890 -0.799183
vn 0.364494 0.478793 -0.798688
vn -0.840724 -0.400212 -0.364710
vn -0.817403 -0.443202 0.368001
vn -0.817403 0.443202 0.368001
vn -0.840724 0.400212 -0.364710
vn -0.382813 -0.921132 0.070502
vn -0.359285 -0.906563 -0.221491
vn -0.549111 -0.804216 -0.227405
vn -0.454591 -0.857982 0.239195
vn -0.025100 -0.922993 -0.383997
vn 0.024501 -0.923042 -0.383918
vn 0.227405 -0.804217 -0.549111
vn -0.227487 -0.804154 -0.549169
vn 0.358685 -0.906062 -0.224491
vn 0.382681 -0.921055 0.072196
vn 0.454591 -0.857982 0.239195
vn 0.549169 -0.804154 -0.227487
vn 0.108802 -0.919017 0.378907
vn -0.111097 -0.918873 0.378589
vn -0.153300 -0.899201 0.409800
vn 0.153300 -0.899201 0.409800
vn -0.111097 0.918873 0.378589
vn 0.108802 0.919017 0.378907
vn 0.227405 0.804217 0.549111
vn -0.227487 0.804154 0.549169
vn 0.382681 0.921055 0.072196
vn 0.358685 0.906062 -0.224491
vn 0.549169 0.804154 -0.227487
vn 0.549169 0.804154 0.227487
vn 0.024501 0.923042 -0.383918
vn -0.025100 0.922993 -0.383997
vn -0.227499 0.804198 -0.549099
vn 0.227499 0.804198 -0.549099
vn -0.359285 0.906563 -0.221491
vn -0.382813 0.921132 0.070502
vn -0.549111 0.804216 0.227405
vn -0.549169 0.804154 -0.227487
vn -0.367791 -0.426990 0.826081
vn -0.817403 -0.443202 0.368001
vn -0.382813 -0.921132 0.070502
vn -0.111097 -0.918873 0.378589
vn 0.108802 -0.919017 0.378907
vn 0.382681 -0.921055 0.072196
vn 0.817858 -0.442377 0.367981
vn 0.367803 -0.427703 0.825706
vn -0.840724 -0.400212 -0.364710
vn -0.364592 -0.477890 -0.799183
vn -0.025100 -0.922993 -0.383997
vn -0.359285 -0.906563 -0.221491
vn 0.358685 -0.906062 -0.224491
vn 0.024501 -0.923042 -0.383918
vn 0.364494 -0.478793 -0.798688
vn 0.841011 -0.399705 -0.364605
vn -0.367791 0.426990 0.826081
vn -0.111097 0.918873 0.378589
vn -0.382813 0.921132 0.070502
vn -0.817403 0.443202 0.368001
vn 0.817858 0.442377 0.367981
vn 0.382681 0.921055 0.072196
vn 0.108802 0.919017 0.378907
vn 0.367803 0.427703 0.825706
vn -0.840724 0.400212 -0.364710
vn -0.359285 0.906563 -0.221491
vn -0.025100 0.922993 -0.383997
vn -0.364592 0.477890 -0.799183
vn 0.364494 0.478793 -0.798688
vn 0.024501 0.923042 -0.383918
vn 0.358685 0.906062 -0.224491
vn 0.841011 0.399705 -0.364605
vn -0.382813 -0.921132 0.070502
vn -0.817403 -0.443202 0.368001
vn -0.840724 -0.400212 -0.364710
vn -0.359285 -0.906563 -0.221491
vn -0.025100 -0.922993 -0.383997
vn -0.364592 -0.477890 -0.799183
vn 0.364494 -0.478793 -0.798688
vn 0.024501 -0.923042 -0.383918
vn 0.358685 -0.906062 -0.224491
vn 0.841011 -0.399705 -0.364605
vn 0.817858 -0.442377 0.367981
vn 0.382681 -0.921055 0.072196
vn 0.108802 -0.919017 0.378907
vn 0.367803 -0.427703 0.825706
vn -0.367791 -0.426990 0.826081
vn -0.111097 -0.918873 0.378589
vn -0.111097 0.918873 0.378589
vn -0.367791 0.426990 0.826081
vn 0.367803 0.427703 0.825706
vn 0.108802 0.919017 0.378907
vn 0.382681 0.921055 0.072196
vn 0.817858 0.442377 0.367981
vn 0.841011 0.399705 -0.364605
vn 0.358685 0.906062 -0.224491
vn 0.024501 0.923042 -0.383918
vn 0.364494 0.478793 -0.798688
vn -0.364592 0.477890 -0.799183
vn -0.025100 0.922993 -0.383997
vn -0.359285 0.906563 -0.221491
vn -0.840724 0.400212 -0.364710
vn -0.817403 0.443202 0.368001
vn -0.382813 0.921132 0.070502
vn 0.367803 -0.427703 0.825706
vn 0.817858 -0.442377 0.367981
vn 0.817858 0.442377 0.367981
vn 0.367803 0.427703 0.825706
vn -0.367791 0.426990 0.826081
vn -0.817403 0.443202 0.368001
vn -0.817403 -0.443202 0.368001
vn -0.367791 -0.426990 0.826081
vn 0.841011 -0.399705 -0.364605
vn 0.364494 -0.478793 -0.798688
vn 0.364494 0.478793 -0.798688
vn 0.841011 0.399705 -0.364605
vn -0.364592 -0.477890 -0.799183
vn -0.840724 -0.400212 -0.364710
vn -0.840724 0.400212 -0.364710
vn -0.364592 0.477890 -0.799183
vn -0.111097 -0.918873 0.378589
vn -0.382813 -0.921132 0.070502
vn -0.454591 -0.857982 0.239195
vn -0.153300 -0.899201 0.409800
vn -0.359285 -0.906563 -0.221491
vn -0.025100 -0.922993 -0.383997
vn -0.227487 -0.804154 -0.549169
vn -0.549111 -0.804216 -0.227405
vn 0.024501 -0.923042 -0.383918
vn 0.358685 -0.906062 -0.224491
vn 0.549169 -0.804154 -0.227487
vn 0.227405 -0.804217 -0.549111
vn 0.382681 -0.921055 0.072196
vn 0.108802 -0.919017 0.378907
vn 0.153300 -0.899201 0.409800
vn 0.454591 -0.857982 0.239195
vn -0.382813 0.921132 0.070502
vn -0.111097 0.918873 0.378589
vn -0.227487 0.804154 0.549169
vn -0.549111 0.804216 0.227405
vn 0.108802 0.919017 0.378907
vn 0.382681 0.921055 0.072196
vn 0.549169 0.804154 0.227487
vn 0.227405 0.804217 0.549111
vn 0.358685 0.906062 -0.224491
vn 0.024501 0.923042 -0.383918
vn 0.227499 0.804198 -0.549099
vn 0.549169 0.804154 -0.227487
vn -0.025100 0.922993 -0.383997
vn -0.359285 0.906563 -0.221491
vn -0.549169 0.804154 -0.227487
vn -0.227499 0.804198 -0.549099
vn -0.341590 0.875575 0.341590
vn 0.341590 0.875575 0.341590
vn 0.455395 0.841390 0.290996
vn -0.455395 0.841390 0.290996
vn -0.227487 0.804154 0.549169
vn 0.227405 0.804217 0.549111
vn 0.341602 0.341502 0.875605
vn -0.341590 0.341590 0.875575
vn 0.549169 0.804154 0.227487
vn 0.549169 0.804154 -0.227487
vn 0.965224 0.237706 0.108803
vn 0.875575 0.341590 0.341590
vn 0.338307 0.889617 0.306806
vn 0.341590 0.875575 -0.341590
vn -0.341590 0.875575 -0.341590
vn -0.338307 0.889617 0.306806
vn -0.549169 0.804154 -0.227487
vn -0.549111 0.804216 0.227405
vn -0.875605 0.341502 0.341602
vn -0.965224 0.237706 0.108803
vn 0.227499 0.804198 -0.549099
vn -0.227499 0.804198 -0.549099
vn -0.341602 0.341502 -0.875605
vn 0.341602 0.341502 -0.875605
vn -0.923877 0.000000 -0.382690
vn -0.954011 0.134502 0.267903
vn -0.869670 0.373387 0.322889
vn -0.875575 0.341590 -0.341590
vn -0.436393 0.430493 0.790087
vn 0.436393 0.430493 0.790087
vn 0.338292 0.431890 0.836080
vn -0.338292 0.431890 0.836080
vn 0.954011 0.134502 0.267903
vn 0.923877 0.000000 -0.382690
vn 0.875575 0.341590 -0.341590
vn 0.869670 0.373387 0.322889
vn -0.549169 0.804154 -0.227487
vn -0.923877 0.000000 -0.382690
vn -0.227499 0.804198 -0.549099
vn -0.341590 0.341590 0.875575
vn -0.341590 0.875575 0.341590
vn -0.875605 0.341502 0.341602
vn 0.875575 0.341590 0.341590
vn 0.341590 0.875575 0.341590
vn 0.341602 0.341502 0.875605
vn 0.227499 0.804198 -0.549099
vn 0.923877 0.000000 -0.382690
vn 0.549169 0.804154 -0.227487
vn 0.965224 0.237706 0.108803
vn 0.954011 0.134502 0.267903
vn 0.436393 0.430493 0.790087
vn 0.455395 0.841390 0.290996
vn -0.965224 0.237706 0.108803
vn -0.455395 0.841390 0.290996
vn -0.436393 0.430493 0.790087
vn -0.954011 0.134502 0.267903
vn 0.341602 0.341502 -0.875605
vn 0.341590 0.875575 -0.341590
vn 0.875575 0.341590 -0.341590
vn -0.875575 0.341590 -0.341590
vn -0.341590 0.875575 -0.341590
vn -0.341602 0.341502 -0.875605
vn -0.338292 0.431890 0.836080
vn -0.338307 0.889617 0.306806
vn -0.869670 0.373387 0.322889
vn 0.869670 0.373387 0.322889
vn 0.338307 0.889617 0.306806
vn 0.338292 0.431890 0.836080
vn -0.341590 0.875575 0.341590
vn -0.341590 0.341590 0.875575
vn 0.341602 0.341502 0.875605
vn 0.341590 0.875575 0.341590
vn 0.341590 0.875575 0.341590
vn 0.875575 0.341590 0.341590
vn 0.965224 0.237706 0.108803
vn 0.455395 0.841390 0.290996
vn 0.227405 0.804217 0.549111
vn 0.549169 0.804154 0.227487
vn 0.875575 0.341590 0.341590
vn 0.341602 0.341502 0.875605
vn -0.341590 0.341590 0.875575
vn -0.875605 0.341502 0.341602
vn -0.549111 0.804216 0.227405
vn -0.227487 0.804154 0.549169
vn 0.954011 0.134502 0.267903
vn 0.965224 0.237706 0.108803
vn 0.549169 0.804154 -0.227487
vn 0.923877 0.000000 -0.382690
vn -0.455395 0.841390 0.290996
vn -0.965224 0.237706 0.108803
vn -0.875605 0.341502 0.341602
vn -0.341590 0.875575 0.341590
vn -0.436393 0.430493 0.790087
vn -0.455395 0.841390 0.290996
vn 0.455395 0.841390 0.290996
vn 0.436393 0.430493 0.790087
vn -0.923877 0.000000 -0.382690
vn -0.549169 0.804154 -0.227487
vn -0.965224 0.237706 0.108803
vn -0.954011 0.134502 0.267903
vn 0.341590 0.875575 -0.341590
vn 0.341602 0.341502 -0.875605
vn -0.341602 0.341502 -0.875605
vn -0.341590 0.875575 -0.341590
vn -0.341590 0.875575 -0.341590
vn -0.875575 0.341590 -0.341590
vn -0.869670 0.373387 0.322889
vn -0.338307 0.889617 0.306806
vn -0.338307 0.889617 0.306806
vn -0.338292 0.431890 0.836080
vn 0.338292 0.431890 0.836080
vn 0.338307 0.889617 0.306806
vn 0.338307 0.889617 0.306806
vn 0.869670 0.373387 0.322889
vn 0.875575 0.341590 -0.341590
vn 0.341590 0.875575 -0.341590
vn 0.923877 0.000000 -0.382690
vn 0.227499 0.804198 -0.549099
vn 0.341602 0.341502 -0.875605
vn 0.875575 0.341590 -0.341590
vn -0.227499 0.804198 -0.549099
vn -0.923877 0.000000 -0.382690
vn -0.875575 0.341590 -0.341590
vn -0.341602 0.341502 -0.875605
vn -0.954011 0.134502 0.267903
vn -0.436393 0.430493 0.790087
vn -0.338292 0.431890 0.836080
vn -0.869670 0.373387 0.322889
vn 0.436393 0.430493 0.790087
vn 0.954011 0.134502 0.267903
vn 0.869670 0.373387 0.322889
vn 0.338292 0.431890 0.836080
s off
g Seat_Low_4Sculpt:Box022
usemtl aiStandardSurface1SG
f 1/1/1 2/2/2 3/3/3 4/4/4
f 5/5/5 6/6/6 7/7/7 8/8/8
f 9/9/9 10/10/10 11/11/11 12/12/12
f 13/13/13 14/14/14 15/15/15 16/16/16
f 17/17/17 18/18/18 19/19/19 20/20/20
f 21/21/21 22/22/22 23/23/23 24/24/24
f 25/25/25 26/26/26 27/27/27 28/28/28
f 29/29/29 30/30/30 31/31/31 32/32/32
f 33/33/33 34/34/34 35/35/35 36/36/36
f 5/5/37 18/37/38 1/38/39
f 4/39/40 9/40/41 6/6/42
f 17/41/43 14/14/44 2/42/45
f 3/43/46 13/13/47 10/44/48
f 8/8/49 21/21/50 34/45/51 19/46/52
f 12/47/53 25/48/54 22/22/55 7/7/56
f 20/49/57 33/50/58 30/30/59 15/15/60
f 16/16/61 29/29/62 26/51/63 11/52/64
f 1/53/65 18/18/66 17/17/67 2/54/68
f 2/42/69 14/14/70 13/13/71 3/43/72
f 3/55/73 10/10/74 9/9/75 4/56/76
f 4/39/77 6/6/78 5/5/79 1/38/80
f 21/21/81 8/8/82 7/7/83 22/22/84
f 25/25/85 12/12/86 11/11/87 26/26/88
f 29/29/89 16/16/90 15/15/91 30/30/92
f 33/33/93 20/20/94 19/19/95 34/34/96
f 6/6/97 9/40/98 12/47/99 7/7/100
f 8/8/101 19/46/102 18/37/103 5/5/104
f 10/44/105 13/13/106 16/16/107 11/52/108
f 14/14/109 17/41/110 20/49/111 15/15/112
f 34/45/113 21/21/114 24/24/115 35/57/116
f 22/22/117 25/48/118 28/58/119 23/23/120
f 26/51/121 29/29/122 32/32/123 27/59/124
f 30/30/125 33/50/126 36/60/127 31/31/128
f 24/61/129 23/62/130 37/63/131 38/64/132
f 28/65/133 27/66/134 39/67/135 40/68/136
f 32/69/137 31/70/138 41/71/139 42/72/140
f 36/73/141 35/74/142 43/75/143 44/76/144
f 23/77/145 28/65/146 40/68/147 37/78/148
f 38/79/149 43/75/150 35/74/151 24/80/152
f 27/66/153 32/81/154 42/82/155 39/67/156
f 31/83/157 36/73/158 44/76/159 41/84/160
f 45/85/161 46/86/162 47/87/163 48/88/164
f 49/89/165 50/90/166 51/91/167 52/92/168
f 53/93/169 54/94/170 55/95/171 56/96/172
f 57/97/173 58/98/174 59/99/175 60/100/176
f 61/101/177 62/102/178 44/103/179 43/104/180
f 63/105/181 64/106/182 42/107/183 41/108/184
f 65/109/185 66/110/186 40/111/187 39/112/188
f 67/113/189 68/114/190 38/115/191 37/116/192
f 69/117/193 70/118/194 71/119/195 72/120/196
f 73/121/197 74/122/198 75/123/199 76/124/200
f 77/125/201 78/126/202 79/127/203 80/128/204
f 81/129/205 82/130/206 83/131/207 84/132/208
f 45/85/209 58/133/210 61/134/211 68/114/212
f 67/113/213 66/135/214 49/136/215 46/86/216
f 57/137/217 54/94/218 63/105/219 62/138/220
f 65/139/221 64/106/222 53/93/223 50/140/224
f 48/88/225 69/117/226 82/141/227 59/142/228
f 52/143/229 73/144/230 70/118/231 47/87/232
f 60/145/233 81/146/234 78/126/235 55/95/236
f 56/96/237 77/125/238 74/147/239 51/148/240
f 61/101/241 58/98/242 57/97/243 62/102/244
f 63/105/245 54/94/246 53/93/247 64/106/248
f 65/109/249 50/90/250 49/89/251 66/110/252
f 67/113/253 46/86/254 45/85/255 68/114/256
f 69/117/257 48/88/258 47/87/259 70/118/260
f 73/121/261 52/92/262 51/91/263 74/122/264
f 77/125/265 56/96/266 55/95/267 78/126/268
f 81/129/269 60/100/270 59/99/271 82/130/272
f 46/86/273 49/136/274 52/143/275 47/87/276
f 48/88/277 59/142/278 58/133/279 45/85/280
f 50/140/281 53/93/282 56/96/283 51/148/284
f 54/94/285 57/137/286 60/145/287 55/95/288
f 68/114/289 61/134/290 43/149/291 38/115/292
f 62/138/293 63/105/294 41/108/295 44/150/296
f 64/106/297 65/139/298 39/151/299 42/107/300
f 66/135/301 67/113/302 37/116/303 40/152/304
f 82/141/305 69/117/306 72/120/307 83/153/308
f 70/118/309 73/144/310 76/154/311 71/119/312
f 74/147/313 77/125/314 80/128/315 75/155/316
f 78/126/317 81/146/318 84/156/319 79/127/320
f 85/157/321 86/158/322 87/159/323 88/160/324
f 72/161/325 71/162/326 89/163/327 90/164/328
f 76/165/329 75/166/330 91/167/331 92/168/332
f 93/169/333 94/170/334 95/171/335 96/172/336
f 84/173/337 83/174/338 97/175/339 98/176/340
f 80/177/341 79/178/342 99/179/343 100/180/344
f 101/181/345 102/182/346 103/183/347 104/184/348
f 105/185/349 106/186/350 107/187/351 108/188/352
f 109/189/353 110/190/354 111/191/355 112/192/356
f 84/193/357 101/194/358 79/178/359
f 90/195/360 85/157/361 97/196/362
f 92/197/363 86/158/364 89/198/365
f 80/177/366 110/199/367 75/200/368
f 91/201/369 109/202/370 106/186/371 87/203/372
f 98/204/373 88/205/374 105/185/375 102/206/376
f 100/207/377 94/170/378 111/208/379
f 104/209/380 95/171/381 99/210/382
f 108/188/383 96/211/384 103/212/385
f 112/213/386 93/214/387 107/187/388
f 85/157/389 90/195/390 89/198/391 86/158/392
f 86/158/393 92/197/394 91/215/395 87/159/396
f 71/162/397 76/216/398 92/217/399 89/163/400
f 90/164/401 97/218/402 83/219/403 72/161/404
f 109/189/405 91/167/406 75/166/407 110/190/408
f 88/160/409 98/220/410 97/196/411 85/157/412
f 105/185/413 88/205/414 87/203/415 106/186/416
f 101/181/417 84/173/418 98/176/419 102/182/420
f 94/170/421 100/207/422 99/210/423 95/171/424
f 95/171/425 104/209/426 103/221/427 96/172/428
f 96/211/429 108/188/430 107/187/431 93/214/432
f 93/169/433 112/222/434 111/208/435 94/170/436
f 110/199/437 80/177/438 100/180/439 111/223/440
f 79/178/441 101/194/442 104/224/443 99/179/444
f 102/206/445 105/185/446 108/188/447 103/212/448
f 106/186/449 109/202/450 112/213/451 107/187/452
