# This file uses centimeters as units for non-parametric coordinates.

mtllib WOOD.mtl
g default
v -29.827338 0.356902 130.404558
v 41.827338 0.356902 130.404558
v -29.827338 53.643098 130.404558
v 41.827338 53.643098 130.404558
v -29.827338 53.643098 101.595442
v 41.827338 53.643098 101.595442
v -29.827338 0.356902 101.595442
v 41.827338 0.356902 101.595442
vt 0.177758 0.001856
vt 0.611346 0.006471
vt 0.174326 0.324294
vt 0.607914 0.328909
vt 0.172471 0.498620
vt 0.606058 0.503235
vt 0.169039 0.821059
vt 0.602626 0.825674
vt 0.167183 0.995385
vt 0.600771 1.000000
vt 0.785672 0.008326
vt 0.782240 0.330765
vt 0.003432 -0.000000
vt 0.000000 0.322439
vn 0.000000 0.000000 1.000000
vn 0.000000 0.000000 1.000000
vn 0.000000 0.000000 1.000000
vn 0.000000 0.000000 1.000000
vn 0.000000 1.000000 0.000000
vn 0.000000 1.000000 0.000000
vn 0.000000 1.000000 0.000000
vn 0.000000 1.000000 0.000000
vn 0.000000 0.000000 -1.000000
vn 0.000000 0.000000 -1.000000
vn 0.000000 0.000000 -1.000000
vn 0.000000 0.000000 -1.000000
vn 0.000000 -1.000000 0.000000
vn 0.000000 -1.000000 0.000000
vn 0.000000 -1.000000 0.000000
vn 0.000000 -1.000000 0.000000
vn 1.000000 0.000000 0.000000
vn 1.000000 0.000000 0.000000
vn 1.000000 0.000000 0.000000
vn 1.000000 0.000000 0.000000
vn -1.000000 0.000000 0.000000
vn -1.000000 0.000000 0.000000
vn -1.000000 0.000000 0.000000
vn -1.000000 0.000000 0.000000
s off
g pCube1
usemtl aiStandardSurface1SG
f 1/1/1 2/2/2 4/4/3 3/3/4
f 3/3/5 4/4/6 6/6/7 5/5/8
f 5/5/9 6/6/10 8/8/11 7/7/12
f 7/7/13 8/8/14 2/10/15 1/9/16
f 2/2/17 8/11/18 6/12/19 4/4/20
f 7/13/21 1/1/22 3/3/23 5/14/24
