mtllib SuitCase.mtl

v -0.2415438 0 -0.1178343
v -0.2415438 0.009750009 -0.1100202
v -0.2415438 0.05882615 -0.1100202
v -0.2415438 0 -0.1178343
v -0.2415438 0.05882615 -0.1100202
v -0.2415438 0.05882615 -0.1178343
v -0.2415438 0.009750009 -0.1100202
v -0.2415438 0 -0.1178343
v -0.2415438 0 -0.0534656
v -0.2415438 0.009750009 -0.1100202
v -0.2415438 0 -0.0534656
v -0.2415438 0.009750009 -0.0534656
v -0.2985085 0 -0.0534656
v -0.2985085 0 -0.1178343
v -0.2985085 0.05882615 -0.1178343
v -0.2985085 0 -0.0534656
v -0.2985085 0.05882615 -0.1178343
v -0.2985085 0.05882615 -0.0534656
v -0.2985085 0 -0.0534656
v -0.2415438 0.009750009 -0.0534656
v -0.2415438 0 -0.0534656
v -0.2914445 0.009750009 -0.0534656
v -0.2415438 0.009750009 -0.0534656
v -0.2985085 0 -0.0534656
v -0.2914445 0.05882615 -0.0534656
v -0.2914445 0.009750009 -0.0534656
v -0.2985085 0 -0.0534656
v -0.2985085 0.05882615 -0.0534656
v -0.2914445 0.05882615 -0.0534656
v -0.2985085 0 -0.0534656
v -0.2985085 0 -0.0534656
v -0.2415438 0 -0.0534656
v -0.2415438 0 -0.1178343
v -0.2985085 0 -0.0534656
v -0.2415438 0 -0.1178343
v -0.2985085 0 -0.1178343
v -0.2985085 0 -0.1178343
v -0.2415438 0 -0.1178343
v -0.2415438 0.05882615 -0.1178343
v -0.2985085 0 -0.1178343
v -0.2415438 0.05882615 -0.1178343
v -0.2985085 0.05882615 -0.1178343
v -0.2985085 0.05882615 -0.1178343
v -0.2914445 0.05882615 -0.1100202
v -0.2914445 0.05882615 -0.0534656
v -0.2985085 0.05882615 -0.1178343
v -0.2914445 0.05882615 -0.0534656
v -0.2985085 0.05882615 -0.0534656
v -0.2914445 0.05882615 -0.1100202
v -0.2985085 0.05882615 -0.1178343
v -0.2415438 0.05882615 -0.1178343
v -0.2914445 0.05882615 -0.1100202
v -0.2415438 0.05882615 -0.1178343
v -0.2415438 0.05882615 -0.1100202
v 0.2985085 0 -0.1178341
v 0.2985085 0 -0.05346537
v 0.2985085 0.05882615 -0.05346537
v 0.2985085 0 -0.1178341
v 0.2985085 0.05882615 -0.05346537
v 0.2985085 0.05882615 -0.1178341
v 0.2415438 0 -0.1178341
v 0.2415438 0.009750009 -0.05346537
v 0.2415438 0 -0.05346537
v 0.2415438 0.009750009 -0.1100199
v 0.2415438 0.009750009 -0.05346537
v 0.2415438 0 -0.1178341
v 0.2415438 0.05882615 -0.1100199
v 0.2415438 0.009750009 -0.1100199
v 0.2415438 0 -0.1178341
v 0.2415438 0.05882615 -0.1178341
v 0.2415438 0.05882615 -0.1100199
v 0.2415438 0 -0.1178341
v 0.2985085 0 -0.05346537
v 0.2911879 0.009750009 -0.05346537
v 0.2911879 0.05882615 -0.05346537
v 0.2985085 0 -0.05346537
v 0.2911879 0.05882615 -0.05346537
v 0.2985085 0.05882615 -0.05346537
v 0.2911879 0.009750009 -0.05346537
v 0.2985085 0 -0.05346537
v 0.2415438 0 -0.05346537
v 0.2911879 0.009750009 -0.05346537
v 0.2415438 0 -0.05346537
v 0.2415438 0.009750009 -0.05346537
v 0.2415438 0 -0.05346537
v 0.2985085 0 -0.05346537
v 0.2985085 0 -0.1178341
v 0.2415438 0 -0.05346537
v 0.2985085 0 -0.1178341
v 0.2415438 0 -0.1178341
v 0.2985085 0.05882615 -0.1178341
v 0.2415438 0.05882615 -0.1178341
v 0.2415438 0 -0.1178341
v 0.2985085 0.05882615 -0.1178341
v 0.2415438 0 -0.1178341
v 0.2985085 0 -0.1178341
v 0.2985085 0.05882615 -0.1178341
v 0.2415438 0.05882615 -0.1100199
v 0.2415438 0.05882615 -0.1178341
v 0.2911879 0.05882615 -0.1100199
v 0.2415438 0.05882615 -0.1100199
v 0.2985085 0.05882615 -0.1178341
v 0.2911879 0.05882615 -0.05346537
v 0.2911879 0.05882615 -0.1100199
v 0.2985085 0.05882615 -0.1178341
v 0.2985085 0.05882615 -0.05346537
v 0.2911879 0.05882615 -0.05346537
v 0.2985085 0.05882615 -0.1178341
v -0.2415438 0 0.1178346
v -0.2415438 0.009750009 0.05346584
v -0.2415438 0 0.05346584
v -0.2415438 0.009750009 0.1103346
v -0.2415438 0.009750009 0.05346584
v -0.2415438 0 0.1178346
v -0.2415438 0.05882615 0.1103346
v -0.2415438 0.009750009 0.1103346
v -0.2415438 0 0.1178346
v -0.2415438 0.05882615 0.1178346
v -0.2415438 0.05882615 0.1103346
v -0.2415438 0 0.1178346
v -0.2985085 0 0.1178346
v -0.2985085 0 0.05346584
v -0.2985085 0.05882615 0.05346584
v -0.2985085 0 0.1178346
v -0.2985085 0.05882615 0.05346584
v -0.2985085 0.05882615 0.1178346
v -0.2415438 0 0.1178346
v -0.2985085 0 0.1178346
v -0.2985085 0.05882615 0.1178346
v -0.2415438 0 0.1178346
v -0.2985085 0.05882615 0.1178346
v -0.2415438 0.05882615 0.1178346
v -0.2415438 0 0.1178346
v -0.2415438 0 0.05346584
v -0.2985085 0 0.05346584
v -0.2415438 0 0.1178346
v -0.2985085 0 0.05346584
v -0.2985085 0 0.1178346
v -0.2985085 0 0.05346584
v -0.2914445 0.009750009 0.05346584
v -0.2914445 0.05882615 0.05346584
v -0.2985085 0 0.05346584
v -0.2914445 0.05882615 0.05346584
v -0.2985085 0.05882615 0.05346584
v -0.2914445 0.009750009 0.05346584
v -0.2985085 0 0.05346584
v -0.2415438 0 0.05346584
v -0.2914445 0.009750009 0.05346584
v -0.2415438 0 0.05346584
v -0.2415438 0.009750009 0.05346584
v -0.2914445 0.05882615 0.1103346
v -0.2985085 0.05882615 0.05346584
v -0.2914445 0.05882615 0.05346584
v -0.2985085 0.05882615 0.1178346
v -0.2985085 0.05882615 0.05346584
v -0.2914445 0.05882615 0.1103346
v -0.2415438 0.05882615 0.1103346
v -0.2985085 0.05882615 0.1178346
v -0.2914445 0.05882615 0.1103346
v -0.2415438 0.05882615 0.1178346
v -0.2985085 0.05882615 0.1178346
v -0.2415438 0.05882615 0.1103346
v 0.2985085 0 0.05346608
v 0.2985084 0 0.1178346
v 0.2985084 0.05882615 0.1178346
v 0.2985085 0 0.05346608
v 0.2985084 0.05882615 0.1178346
v 0.2985085 0.05882615 0.05346608
v 0.2415437 0 0.1178346
v 0.2415437 0.009750009 0.1103346
v 0.2415437 0.05882615 0.1103346
v 0.2415437 0 0.1178346
v 0.2415437 0.05882615 0.1103346
v 0.2415437 0.05882615 0.1178346
v 0.2415437 0.009750009 0.1103346
v 0.2415437 0 0.1178346
v 0.2415437 0 0.05346608
v 0.2415437 0.009750009 0.1103346
v 0.2415437 0 0.05346608
v 0.2415437 0.009750009 0.05346608
v 0.2985084 0 0.1178346
v 0.2415437 0 0.1178346
v 0.2415437 0.05882615 0.1178346
v 0.2985084 0 0.1178346
v 0.2415437 0.05882615 0.1178346
v 0.2985084 0.05882615 0.1178346
v 0.2985085 0 0.05346608
v 0.2415437 0 0.05346608
v 0.2415437 0 0.1178346
v 0.2985085 0 0.05346608
v 0.2415437 0 0.1178346
v 0.2985084 0 0.1178346
v 0.2985085 0 0.05346608
v 0.2415437 0.009750009 0.05346608
v 0.2415437 0 0.05346608
v 0.2911879 0.009750009 0.05346608
v 0.2415437 0.009750009 0.05346608
v 0.2985085 0 0.05346608
v 0.2911879 0.05882615 0.05346608
v 0.2911879 0.009750009 0.05346608
v 0.2985085 0 0.05346608
v 0.2985085 0.05882615 0.05346608
v 0.2911879 0.05882615 0.05346608
v 0.2985085 0 0.05346608
v 0.2911878 0.05882615 0.1103346
v 0.2985084 0.05882615 0.1178346
v 0.2415437 0.05882615 0.1178346
v 0.2911878 0.05882615 0.1103346
v 0.2415437 0.05882615 0.1178346
v 0.2415437 0.05882615 0.1103346
v 0.2985084 0.05882615 0.1178346
v 0.2911878 0.05882615 0.1103346
v 0.2911879 0.05882615 0.05346608
v 0.2985084 0.05882615 0.1178346
v 0.2911879 0.05882615 0.05346608
v 0.2985085 0.05882615 0.05346608
v -0.2415438 0.3999422 0.1103346
v -0.2415438 0.4057032 0.1178346
v -0.2415438 0.4057032 0.05346584
v -0.2415438 0.3999422 0.1103346
v -0.2415438 0.4057032 0.05346584
v -0.2415438 0.3999422 0.05346584
v -0.2415438 0.4057032 0.1178346
v -0.2415438 0.3999422 0.1103346
v -0.2415438 0.346877 0.1103346
v -0.2415438 0.4057032 0.1178346
v -0.2415438 0.346877 0.1103346
v -0.2415438 0.346877 0.1178346
v -0.2985085 0.346877 0.1178346
v -0.2985085 0.346877 0.05346584
v -0.2985085 0.4057032 0.05346584
v -0.2985085 0.346877 0.1178346
v -0.2985085 0.4057032 0.05346584
v -0.2985085 0.4057032 0.1178346
v -0.2985085 0.4057032 0.1178346
v -0.2415438 0.4057032 0.1178346
v -0.2415438 0.346877 0.1178346
v -0.2985085 0.4057032 0.1178346
v -0.2415438 0.346877 0.1178346
v -0.2985085 0.346877 0.1178346
v -0.2914445 0.346877 0.1103346
v -0.2985085 0.346877 0.1178346
v -0.2415438 0.346877 0.1178346
v -0.2914445 0.346877 0.1103346
v -0.2415438 0.346877 0.1178346
v -0.2415438 0.346877 0.1103346
v -0.2985085 0.346877 0.1178346
v -0.2914445 0.346877 0.1103346
v -0.2914445 0.346877 0.05346584
v -0.2985085 0.346877 0.1178346
v -0.2914445 0.346877 0.05346584
v -0.2985085 0.346877 0.05346584
v -0.2914445 0.3999422 0.05346584
v -0.2985085 0.346877 0.05346584
v -0.2914445 0.346877 0.05346584
v -0.2985085 0.4057032 0.05346584
v -0.2985085 0.346877 0.05346584
v -0.2914445 0.3999422 0.05346584
v -0.2415438 0.3999422 0.05346584
v -0.2985085 0.4057032 0.05346584
v -0.2914445 0.3999422 0.05346584
v -0.2415438 0.4057032 0.05346584
v -0.2985085 0.4057032 0.05346584
v -0.2415438 0.3999422 0.05346584
v -0.2985085 0.4057032 0.05346584
v -0.2415438 0.4057032 0.05346584
v -0.2415438 0.4057032 0.1178346
v -0.2985085 0.4057032 0.05346584
v -0.2415438 0.4057032 0.1178346
v -0.2985085 0.4057032 0.1178346
v 0.2985085 0.346877 0.05346608
v 0.2985084 0.346877 0.1178346
v 0.2985084 0.4057032 0.1178346
v 0.2985085 0.346877 0.05346608
v 0.2985084 0.4057032 0.1178346
v 0.2985085 0.4057032 0.05346608
v 0.2415437 0.3999422 0.1103346
v 0.2415437 0.346877 0.1178346
v 0.2415437 0.346877 0.1103346
v 0.2415437 0.4057032 0.1178346
v 0.2415437 0.346877 0.1178346
v 0.2415437 0.3999422 0.1103346
v 0.2415437 0.3999422 0.05346608
v 0.2415437 0.4057032 0.1178346
v 0.2415437 0.3999422 0.1103346
v 0.2415437 0.4057032 0.05346608
v 0.2415437 0.4057032 0.1178346
v 0.2415437 0.3999422 0.05346608
v 0.2985084 0.346877 0.1178346
v 0.2415437 0.346877 0.1178346
v 0.2415437 0.4057032 0.1178346
v 0.2985084 0.346877 0.1178346
v 0.2415437 0.4057032 0.1178346
v 0.2985084 0.4057032 0.1178346
v 0.2911878 0.346877 0.1103346
v 0.2985085 0.346877 0.05346608
v 0.2911879 0.346877 0.05346608
v 0.2985084 0.346877 0.1178346
v 0.2985085 0.346877 0.05346608
v 0.2911878 0.346877 0.1103346
v 0.2415437 0.346877 0.1103346
v 0.2985084 0.346877 0.1178346
v 0.2911878 0.346877 0.1103346
v 0.2415437 0.346877 0.1178346
v 0.2985084 0.346877 0.1178346
v 0.2415437 0.346877 0.1103346
v 0.2911879 0.3999422 0.05346608
v 0.2985085 0.4057032 0.05346608
v 0.2415437 0.4057032 0.05346608
v 0.2911879 0.3999422 0.05346608
v 0.2415437 0.4057032 0.05346608
v 0.2415437 0.3999422 0.05346608
v 0.2985085 0.4057032 0.05346608
v 0.2911879 0.3999422 0.05346608
v 0.2911879 0.346877 0.05346608
v 0.2985085 0.4057032 0.05346608
v 0.2911879 0.346877 0.05346608
v 0.2985085 0.346877 0.05346608
v 0.2415437 0.4057032 0.1178346
v 0.2415437 0.4057032 0.05346608
v 0.2985085 0.4057032 0.05346608
v 0.2415437 0.4057032 0.1178346
v 0.2985085 0.4057032 0.05346608
v 0.2985084 0.4057032 0.1178346
v -0.2415438 0.3999422 -0.1100202
v -0.2415438 0.346877 -0.1152101
v -0.2415438 0.346877 -0.1100202
v -0.2415438 0.4057032 -0.1152101
v -0.2415438 0.346877 -0.1152101
v -0.2415438 0.3999422 -0.1100202
v -0.2415438 0.3999422 -0.05084133
v -0.2415438 0.4057032 -0.1152101
v -0.2415438 0.3999422 -0.1100202
v -0.2415438 0.4057032 -0.05084133
v -0.2415438 0.4057032 -0.1152101
v -0.2415438 0.3999422 -0.05084133
v -0.2985085 0.346877 -0.05084133
v -0.2985085 0.346877 -0.1152101
v -0.2985085 0.4057032 -0.1152101
v -0.2985085 0.346877 -0.05084133
v -0.2985085 0.4057032 -0.1152101
v -0.2985085 0.4057032 -0.05084133
v -0.2914445 0.3999422 -0.05084133
v -0.2985085 0.4057032 -0.05084133
v -0.2415438 0.4057032 -0.05084133
v -0.2914445 0.3999422 -0.05084133
v -0.2415438 0.4057032 -0.05084133
v -0.2415438 0.3999422 -0.05084133
v -0.2985085 0.4057032 -0.05084133
v -0.2914445 0.3999422 -0.05084133
v -0.2914445 0.346877 -0.05084133
v -0.2985085 0.4057032 -0.05084133
v -0.2914445 0.346877 -0.05084133
v -0.2985085 0.346877 -0.05084133
v -0.2985085 0.346877 -0.1152101
v -0.2415438 0.346877 -0.1100202
v -0.2415438 0.346877 -0.1152101
v -0.2914445 0.346877 -0.1100202
v -0.2415438 0.346877 -0.1100202
v -0.2985085 0.346877 -0.1152101
v -0.2914445 0.346877 -0.05084133
v -0.2914445 0.346877 -0.1100202
v -0.2985085 0.346877 -0.1152101
v -0.2985085 0.346877 -0.05084133
v -0.2914445 0.346877 -0.05084133
v -0.2985085 0.346877 -0.1152101
v -0.2985085 0.346877 -0.1152101
v -0.2415438 0.346877 -0.1152101
v -0.2415438 0.4057032 -0.1152101
v -0.2985085 0.346877 -0.1152101
v -0.2415438 0.4057032 -0.1152101
v -0.2985085 0.4057032 -0.1152101
v -0.2985085 0.4057032 -0.05084133
v -0.2985085 0.4057032 -0.1152101
v -0.2415438 0.4057032 -0.1152101
v -0.2985085 0.4057032 -0.05084133
v -0.2415438 0.4057032 -0.1152101
v -0.2415438 0.4057032 -0.05084133
v 0.2985085 0.346877 -0.1152098
v 0.2985085 0.346877 -0.05084109
v 0.2985085 0.4057032 -0.05084109
v 0.2985085 0.346877 -0.1152098
v 0.2985085 0.4057032 -0.05084109
v 0.2985085 0.4057032 -0.1152098
v 0.2415438 0.3999422 -0.1100199
v 0.2415438 0.4057032 -0.1152098
v 0.2415438 0.4057032 -0.05084109
v 0.2415438 0.3999422 -0.1100199
v 0.2415438 0.4057032 -0.05084109
v 0.2415438 0.3999422 -0.05084109
v 0.2415438 0.4057032 -0.1152098
v 0.2415438 0.3999422 -0.1100199
v 0.2415438 0.346877 -0.1100199
v 0.2415438 0.4057032 -0.1152098
v 0.2415438 0.346877 -0.1100199
v 0.2415438 0.346877 -0.1152098
v 0.2911879 0.3999422 -0.05084109
v 0.2985085 0.346877 -0.05084109
v 0.2911879 0.346877 -0.05084109
v 0.2985085 0.4057032 -0.05084109
v 0.2985085 0.346877 -0.05084109
v 0.2911879 0.3999422 -0.05084109
v 0.2415438 0.3999422 -0.05084109
v 0.2985085 0.4057032 -0.05084109
v 0.2911879 0.3999422 -0.05084109
v 0.2415438 0.4057032 -0.05084109
v 0.2985085 0.4057032 -0.05084109
v 0.2415438 0.3999422 -0.05084109
v 0.2985085 0.346877 -0.1152098
v 0.2911879 0.346877 -0.1100199
v 0.2911879 0.346877 -0.05084109
v 0.2985085 0.346877 -0.1152098
v 0.2911879 0.346877 -0.05084109
v 0.2985085 0.346877 -0.05084109
v 0.2911879 0.346877 -0.1100199
v 0.2985085 0.346877 -0.1152098
v 0.2415438 0.346877 -0.1152098
v 0.2911879 0.346877 -0.1100199
v 0.2415438 0.346877 -0.1152098
v 0.2415438 0.346877 -0.1100199
v 0.2985085 0.4057032 -0.1152098
v 0.2415438 0.4057032 -0.1152098
v 0.2415438 0.346877 -0.1152098
v 0.2985085 0.4057032 -0.1152098
v 0.2415438 0.346877 -0.1152098
v 0.2985085 0.346877 -0.1152098
v 0.2415438 0.4057032 -0.05084109
v 0.2415438 0.4057032 -0.1152098
v 0.2985085 0.4057032 -0.1152098
v 0.2415438 0.4057032 -0.05084109
v 0.2985085 0.4057032 -0.1152098
v 0.2985085 0.4057032 -0.05084109
v 0.2911879 0.346877 -0.1100199
v 0.2911879 0.05882615 -0.1100199
v 0.2911879 0.05882615 -0.05346537
v 0.2911879 0.346877 -0.1100199
v 0.2911879 0.05882615 -0.05346537
v 0.2911879 0.05882615 0.05346608
v 0.2911879 0.346877 -0.1100199
v 0.2911879 0.05882615 0.05346608
v 0.2911878 0.05882615 0.1103346
v 0.2911879 0.346877 -0.05084109
v 0.2911879 0.346877 -0.1100199
v 0.2911878 0.05882615 0.1103346
v 0.2911879 0.346877 0.05346608
v 0.2911879 0.346877 -0.05084109
v 0.2911878 0.05882615 0.1103346
v 0.2911878 0.346877 0.1103346
v 0.2911879 0.346877 0.05346608
v 0.2911878 0.05882615 0.1103346
v 0.2911879 0.05882615 0.05346608
v 0.2911879 0.05882615 -0.05346537
v 0.2911879 0.009750009 -0.05346537
v 0.2911879 0.05882615 0.05346608
v 0.2911879 0.009750009 -0.05346537
v 0.2911879 0.009750009 0.05346608
v 0.2911879 0.346877 -0.05084109
v 0.2911879 0.346877 0.05346608
v 0.2911879 0.3999422 0.05346608
v 0.2911879 0.346877 -0.05084109
v 0.2911879 0.3999422 0.05346608
v 0.2911879 0.3999422 -0.05084109
v 0.1201394 0.3999422 -0.03359175
v 0.1201392 0.3999422 0.01482248
v 0.08231878 0.5013723 0.01482248
v 0.1201394 0.3999422 -0.03359175
v 0.08231878 0.5013723 0.01482248
v 0.08231878 0.5013723 -0.03359175
v 0.08100879 0.4249672 0.01482248
v 0.08100879 0.4249672 -0.03359175
v 0.06358242 0.4798179 -0.03359175
v 0.08100879 0.4249672 0.01482248
v 0.06358242 0.4798179 -0.03359175
v 0.06358242 0.4798179 0.01482248
v -0.2914445 0.346877 0.1103346
v -0.2914445 0.05882615 0.1103346
v -0.2914445 0.05882615 0.05346584
v -0.2914445 0.346877 0.1103346
v -0.2914445 0.05882615 0.05346584
v -0.2914445 0.05882615 -0.0534656
v -0.2914445 0.346877 0.1103346
v -0.2914445 0.05882615 -0.0534656
v -0.2914445 0.05882615 -0.1100202
v -0.2914445 0.346877 0.05346584
v -0.2914445 0.346877 0.1103346
v -0.2914445 0.05882615 -0.1100202
v -0.2914445 0.346877 -0.05084133
v -0.2914445 0.346877 0.05346584
v -0.2914445 0.05882615 -0.1100202
v -0.2914445 0.346877 -0.1100202
v -0.2914445 0.346877 -0.05084133
v -0.2914445 0.05882615 -0.1100202
v -0.2914445 0.05882615 -0.0534656
v -0.2914445 0.05882615 0.05346584
v -0.2914445 0.009750009 0.05346584
v -0.2914445 0.05882615 -0.0534656
v -0.2914445 0.009750009 0.05346584
v -0.2914445 0.009750009 -0.0534656
v -0.2914445 0.346877 0.05346584
v -0.2914445 0.346877 -0.05084133
v -0.2914445 0.3999422 -0.05084133
v -0.2914445 0.346877 0.05346584
v -0.2914445 0.3999422 -0.05084133
v -0.2914445 0.3999422 0.05346584
v -0.2415438 0.05882615 0.1103346
v 0.2415437 0.05882615 0.1103346
v -0.2415438 0.009750009 0.1103346
v 0.2911878 0.346877 0.1103346
v 0.2911878 0.05882615 0.1103346
v 0.2415437 0.05882615 0.1103346
v 0.2911878 0.346877 0.1103346
v 0.2415437 0.05882615 0.1103346
v -0.2415438 0.05882615 0.1103346
v 0.2911878 0.346877 0.1103346
v -0.2415438 0.05882615 0.1103346
v -0.2914445 0.05882615 0.1103346
v 0.2415437 0.346877 0.1103346
v 0.2911878 0.346877 0.1103346
v -0.2914445 0.05882615 0.1103346
v 0.2415437 0.3999422 0.1103346
v 0.2415437 0.346877 0.1103346
v -0.2914445 0.05882615 0.1103346
v -0.2415438 0.346877 0.1103346
v 0.2415437 0.3999422 0.1103346
v -0.2914445 0.05882615 0.1103346
v -0.2914445 0.346877 0.1103346
v -0.2415438 0.346877 0.1103346
v -0.2914445 0.05882615 0.1103346
v -0.2415438 0.009750009 0.1103346
v 0.2415437 0.05882615 0.1103346
v 0.2415437 0.009750009 0.1103346
v 0.2415437 0.3999422 0.1103346
v -0.2415438 0.346877 0.1103346
v -0.2415438 0.3999422 0.1103346
v 0.2415438 0.05882615 -0.1100199
v -0.2415438 0.05882615 -0.1100202
v 0.2415438 0.009750009 -0.1100199
v -0.2914445 0.346877 -0.1100202
v -0.2914445 0.05882615 -0.1100202
v -0.2415438 0.05882615 -0.1100202
v -0.2914445 0.346877 -0.1100202
v -0.2415438 0.05882615 -0.1100202
v 0.2415438 0.05882615 -0.1100199
v -0.2914445 0.346877 -0.1100202
v 0.2415438 0.05882615 -0.1100199
v 0.2911879 0.05882615 -0.1100199
v -0.2415438 0.346877 -0.1100202
v -0.2914445 0.346877 -0.1100202
v 0.2911879 0.05882615 -0.1100199
v -0.2415438 0.3999422 -0.1100202
v -0.2415438 0.346877 -0.1100202
v 0.2911879 0.05882615 -0.1100199
v 0.2415438 0.346877 -0.1100199
v -0.2415438 0.3999422 -0.1100202
v 0.2911879 0.05882615 -0.1100199
v 0.2911879 0.346877 -0.1100199
v 0.2415438 0.346877 -0.1100199
v 0.2911879 0.05882615 -0.1100199
v 0.2415438 0.009750009 -0.1100199
v -0.2415438 0.05882615 -0.1100202
v -0.2415438 0.009750009 -0.1100202
v -0.2415438 0.3999422 -0.1100202
v 0.2415438 0.346877 -0.1100199
v 0.2415438 0.3999422 -0.1100199
v -0.2415438 0.009750009 -0.1100202
v 0.2911879 0.009750009 0.05346608
v 0.2415438 0.009750009 -0.05346537
v -0.2415438 0.009750009 -0.1100202
v 0.2415438 0.009750009 -0.05346537
v 0.2415438 0.009750009 -0.1100199
v 0.2415437 0.009750009 0.05346608
v 0.2911879 0.009750009 0.05346608
v -0.2415438 0.009750009 -0.1100202
v -0.2415438 0.009750009 -0.0534656
v 0.2415437 0.009750009 0.05346608
v -0.2415438 0.009750009 -0.1100202
v 0.2415437 0.009750009 0.1103346
v 0.2415437 0.009750009 0.05346608
v -0.2415438 0.009750009 -0.0534656
v -0.2914445 0.009750009 -0.0534656
v 0.2415437 0.009750009 0.1103346
v -0.2415438 0.009750009 -0.0534656
v -0.2415438 0.009750009 0.05346584
v 0.2415437 0.009750009 0.1103346
v -0.2914445 0.009750009 -0.0534656
v -0.2415438 0.009750009 0.1103346
v 0.2415437 0.009750009 0.1103346
v -0.2415438 0.009750009 0.05346584
v 0.2415438 0.009750009 -0.05346537
v 0.2911879 0.009750009 0.05346608
v 0.2911879 0.009750009 -0.05346537
v -0.2415438 0.009750009 0.05346584
v -0.2914445 0.009750009 -0.0534656
v -0.2914445 0.009750009 0.05346584
v -0.0638392 0.4798179 -0.03359175
v -0.120396 0.3999422 -0.03359175
v -0.08126545 0.4249672 -0.03359175
v -0.08257544 0.5013723 -0.03359175
v -0.120396 0.3999422 -0.03359175
v -0.0638392 0.4798179 -0.03359175
v 0.06358242 0.4798179 -0.03359175
v -0.08257544 0.5013723 -0.03359175
v -0.0638392 0.4798179 -0.03359175
v 0.08231878 0.5013723 -0.03359175
v -0.08257544 0.5013723 -0.03359175
v 0.06358242 0.4798179 -0.03359175
v 0.1201394 0.3999422 -0.03359175
v -0.08126545 0.4249672 -0.03359175
v -0.120396 0.3999422 -0.03359175
v 0.08100879 0.4249672 -0.03359175
v -0.08126545 0.4249672 -0.03359175
v 0.1201394 0.3999422 -0.03359175
v 0.06358242 0.4798179 -0.03359175
v 0.08100879 0.4249672 -0.03359175
v 0.1201394 0.3999422 -0.03359175
v 0.08231878 0.5013723 -0.03359175
v 0.06358242 0.4798179 -0.03359175
v 0.1201394 0.3999422 -0.03359175
v 0.06358242 0.4798179 0.01482248
v 0.1201392 0.3999422 0.01482248
v 0.08100879 0.4249672 0.01482248
v 0.08231878 0.5013723 0.01482248
v 0.1201392 0.3999422 0.01482248
v 0.06358242 0.4798179 0.01482248
v -0.0638392 0.4798179 0.01482248
v 0.08231878 0.5013723 0.01482248
v 0.06358242 0.4798179 0.01482248
v -0.08257544 0.5013723 0.01482248
v 0.08231878 0.5013723 0.01482248
v -0.0638392 0.4798179 0.01482248
v -0.1203961 0.3999422 0.01482248
v 0.08100879 0.4249672 0.01482248
v 0.1201392 0.3999422 0.01482248
v -0.08126545 0.4249672 0.01482248
v 0.08100879 0.4249672 0.01482248
v -0.1203961 0.3999422 0.01482248
v -0.0638392 0.4798179 0.01482248
v -0.08126545 0.4249672 0.01482248
v -0.1203961 0.3999422 0.01482248
v -0.08257544 0.5013723 0.01482248
v -0.0638392 0.4798179 0.01482248
v -0.1203961 0.3999422 0.01482248
v -0.120396 0.3999422 -0.03359175
v -0.2914445 0.3999422 -0.05084133
v -0.2415438 0.3999422 -0.05084133
v -0.2914445 0.3999422 0.05346584
v -0.2914445 0.3999422 -0.05084133
v -0.120396 0.3999422 -0.03359175
v -0.1203961 0.3999422 0.01482248
v -0.2914445 0.3999422 0.05346584
v -0.120396 0.3999422 -0.03359175
v -0.2415438 0.3999422 0.05346584
v -0.2914445 0.3999422 0.05346584
v -0.1203961 0.3999422 0.01482248
v -0.2415438 0.3999422 0.1103346
v -0.2415438 0.3999422 0.05346584
v -0.1203961 0.3999422 0.01482248
v 0.1201392 0.3999422 0.01482248
v -0.2415438 0.3999422 0.1103346
v -0.1203961 0.3999422 0.01482248
v 0.2415437 0.3999422 0.05346608
v -0.2415438 0.3999422 0.1103346
v 0.1201392 0.3999422 0.01482248
v 0.2415437 0.3999422 0.1103346
v -0.2415438 0.3999422 0.1103346
v 0.2415437 0.3999422 0.05346608
v -0.120396 0.3999422 -0.03359175
v -0.2415438 0.3999422 -0.05084133
v -0.2415438 0.3999422 -0.1100202
v 0.2415438 0.3999422 -0.1100199
v -0.120396 0.3999422 -0.03359175
v -0.2415438 0.3999422 -0.1100202
v 0.1201394 0.3999422 -0.03359175
v -0.120396 0.3999422 -0.03359175
v 0.2415438 0.3999422 -0.1100199
v 0.2415438 0.3999422 -0.05084109
v 0.1201394 0.3999422 -0.03359175
v 0.2415438 0.3999422 -0.1100199
v 0.2911879 0.3999422 -0.05084109
v 0.1201394 0.3999422 -0.03359175
v 0.2415438 0.3999422 -0.05084109
v 0.1201392 0.3999422 0.01482248
v 0.1201394 0.3999422 -0.03359175
v 0.2911879 0.3999422 -0.05084109
v 0.2415437 0.3999422 0.05346608
v 0.1201392 0.3999422 0.01482248
v 0.2911879 0.3999422 -0.05084109
v 0.2911879 0.3999422 0.05346608
v 0.2415437 0.3999422 0.05346608
v 0.2911879 0.3999422 -0.05084109
v 0.08100879 0.4249672 0.01482248
v -0.0001283884 0.4249672 0.01482248
v -0.0001282692 0.4249672 -0.009384632
v 0.08100879 0.4249672 0.01482248
v -0.0001282692 0.4249672 -0.009384632
v 0.08100879 0.4249672 -0.009384632
v -0.08126545 0.4249672 0.01482248
v -0.08126545 0.4249672 -0.009384632
v -0.0001282692 0.4249672 -0.009384632
v -0.08126545 0.4249672 0.01482248
v -0.0001282692 0.4249672 -0.009384632
v -0.0001283884 0.4249672 0.01482248
v -0.08126545 0.4249672 -0.03359175
v -0.0001282692 0.4249672 -0.03359175
v -0.0001282692 0.4249672 -0.009384632
v -0.08126545 0.4249672 -0.03359175
v -0.0001282692 0.4249672 -0.009384632
v -0.08126545 0.4249672 -0.009384632
v 0.08100879 0.4249672 -0.03359175
v 0.08100879 0.4249672 -0.009384632
v -0.0001282692 0.4249672 -0.009384632
v 0.08100879 0.4249672 -0.03359175
v -0.0001282692 0.4249672 -0.009384632
v -0.0001282692 0.4249672 -0.03359175
v 0.08231878 0.5013723 0.01482248
v -0.0001283884 0.5013723 0.01482248
v -0.0001282692 0.5013723 -0.009384632
v 0.08231878 0.5013723 0.01482248
v -0.0001282692 0.5013723 -0.009384632
v 0.08231878 0.5013723 -0.009384632
v -0.08257544 0.5013723 0.01482248
v -0.08257544 0.5013723 -0.009384632
v -0.0001282692 0.5013723 -0.009384632
v -0.08257544 0.5013723 0.01482248
v -0.0001282692 0.5013723 -0.009384632
v -0.0001283884 0.5013723 0.01482248
v -0.08257544 0.5013723 -0.03359175
v -0.0001282692 0.5013723 -0.03359175
v -0.0001282692 0.5013723 -0.009384632
v -0.08257544 0.5013723 -0.03359175
v -0.0001282692 0.5013723 -0.009384632
v -0.08257544 0.5013723 -0.009384632
v 0.08231878 0.5013723 -0.03359175
v 0.08231878 0.5013723 -0.009384632
v -0.0001282692 0.5013723 -0.009384632
v 0.08231878 0.5013723 -0.03359175
v -0.0001282692 0.5013723 -0.009384632
v -0.0001282692 0.5013723 -0.03359175
v -0.08126545 0.4249672 0.01482248
v -0.07255232 0.4523926 0.01482248
v -0.07255232 0.4523926 -0.009384632
v -0.08126545 0.4249672 0.01482248
v -0.07255232 0.4523926 -0.009384632
v -0.08126545 0.4249672 -0.009384632
v -0.0638392 0.4798179 0.01482248
v -0.0638392 0.4798179 -0.009384632
v -0.07255232 0.4523926 -0.009384632
v -0.0638392 0.4798179 0.01482248
v -0.07255232 0.4523926 -0.009384632
v -0.07255232 0.4523926 0.01482248
v -0.0638392 0.4798179 -0.03359175
v -0.07255232 0.4523926 -0.03359175
v -0.07255232 0.4523926 -0.009384632
v -0.0638392 0.4798179 -0.03359175
v -0.07255232 0.4523926 -0.009384632
v -0.0638392 0.4798179 -0.009384632
v -0.08126545 0.4249672 -0.03359175
v -0.08126545 0.4249672 -0.009384632
v -0.07255232 0.4523926 -0.009384632
v -0.08126545 0.4249672 -0.03359175
v -0.07255232 0.4523926 -0.009384632
v -0.07255232 0.4523926 -0.03359175
v -0.120396 0.3999422 -0.03359175
v -0.1014857 0.4506572 -0.03359175
v -0.1014857 0.4506572 -0.009384632
v -0.120396 0.3999422 -0.03359175
v -0.1014857 0.4506572 -0.009384632
v -0.120396 0.3999422 -0.009384632
v -0.08257544 0.5013723 -0.03359175
v -0.08257544 0.5013723 -0.009384632
v -0.1014857 0.4506572 -0.009384632
v -0.08257544 0.5013723 -0.03359175
v -0.1014857 0.4506572 -0.009384632
v -0.1014857 0.4506572 -0.03359175
v -0.08257544 0.5013723 0.01482248
v -0.1014857 0.4506572 0.01482248
v -0.1014857 0.4506572 -0.009384632
v -0.08257544 0.5013723 0.01482248
v -0.1014857 0.4506572 -0.009384632
v -0.08257544 0.5013723 -0.009384632
v -0.1203961 0.3999422 0.01482248
v -0.120396 0.3999422 -0.009384632
v -0.1014857 0.4506572 -0.009384632
v -0.1203961 0.3999422 0.01482248
v -0.1014857 0.4506572 -0.009384632
v -0.1014857 0.4506572 0.01482248
v 0.06358242 0.4798179 -0.03359175
v -0.0001282692 0.4798179 -0.03359175
v -0.0001282692 0.4798179 -0.009384632
v 0.06358242 0.4798179 -0.03359175
v -0.0001282692 0.4798179 -0.009384632
v 0.06358242 0.4798179 -0.009384632
v -0.0638392 0.4798179 -0.03359175
v -0.0638392 0.4798179 -0.009384632
v -0.0001282692 0.4798179 -0.009384632
v -0.0638392 0.4798179 -0.03359175
v -0.0001282692 0.4798179 -0.009384632
v -0.0001282692 0.4798179 -0.03359175
v -0.0638392 0.4798179 0.01482248
v -0.0001283884 0.4798179 0.01482248
v -0.0001282692 0.4798179 -0.009384632
v -0.0638392 0.4798179 0.01482248
v -0.0001282692 0.4798179 -0.009384632
v -0.0638392 0.4798179 -0.009384632
v 0.06358242 0.4798179 0.01482248
v 0.06358242 0.4798179 -0.009384632
v -0.0001282692 0.4798179 -0.009384632
v 0.06358242 0.4798179 0.01482248
v -0.0001282692 0.4798179 -0.009384632
v -0.0001283884 0.4798179 0.01482248

vn 1 0 0
vn 1 0 0
vn 1 0 0
vn 1 0 0
vn 1 0 0
vn 1 0 0
vn 1 0 0
vn 1 0 0
vn 1 0 0
vn 1 0 0
vn 1 0 0
vn 1 0 0
vn -1 0 0
vn -1 0 0
vn -1 0 0
vn -1 0 0
vn -1 0 0
vn -1 0 0
vn 0 0 1
vn 0 0 1
vn 0 0 1
vn 0 0 1
vn 0 0 1
vn 0 0 1
vn 0 0 1
vn 0 0 1
vn 0 0 1
vn 0 0 1
vn 0 0 1
vn 0 0 1
vn 0 -1 0
vn 0 -1 0
vn 0 -1 0
vn 0 -1 0
vn 0 -1 0
vn 0 -1 0
vn 0 0 -1
vn 0 0 -1
vn 0 0 -1
vn 0 0 -1
vn 0 0 -1
vn 0 0 -1
vn 0 1 0
vn 0 1 0
vn 0 1 0
vn 0 1 0
vn 0 1 0
vn 0 1 0
vn 0 1 0
vn 0 1 0
vn 0 1 0
vn 0 1 0
vn 0 1 0
vn 0 1 0
vn 1 0 0
vn 1 0 0
vn 1 0 0
vn 1 0 0
vn 1 0 0
vn 1 0 0
vn -1 0 0
vn -1 0 0
vn -1 0 0
vn -1 0 0
vn -1 0 0
vn -1 0 0
vn -1 0 0
vn -1 0 0
vn -1 0 0
vn -1 0 0
vn -1 0 0
vn -1 0 0
vn 0 0 1
vn 0 0 1
vn 0 0 1
vn 0 0 1
vn 0 0 1
vn 0 0 1
vn 0 0 1
vn 0 0 1
vn 0 0 1
vn 0 0 1
vn 0 0 1
vn 0 0 1
vn 0 -1 0
vn 0 -1 0
vn 0 -1 0
vn 0 -1 0
vn 0 -1 0
vn 0 -1 0
vn 0 0 -1
vn 0 0 -1
vn 0 0 -1
vn 0 0 -1
vn 0 0 -1
vn 0 0 -1
vn 0 1 0
vn 0 1 0
vn 0 1 0
vn 0 1 0
vn 0 1 0
vn 0 1 0
vn 0 1 0
vn 0 1 0
vn 0 1 0
vn 0 1 0
vn 0 1 0
vn 0 1 0
vn 1 0 0
vn 1 0 0
vn 1 0 0
vn 1 0 0
vn 1 0 0
vn 1 0 0
vn 1 0 0
vn 1 0 0
vn 1 0 0
vn 1 0 0
vn 1 0 0
vn 1 0 0
vn -1 0 0
vn -1 0 0
vn -1 0 0
vn -1 0 0
vn -1 0 0
vn -1 0 0
vn 0 0 1
vn 0 0 1
vn 0 0 1
vn 0 0 1
vn 0 0 1
vn 0 0 1
vn 0 -1 0
vn 0 -1 0
vn 0 -1 0
vn 0 -1 0
vn 0 -1 0
vn 0 -1 0
vn 0 0 -1
vn 0 0 -1
vn 0 0 -1
vn 0 0 -1
vn 0 0 -1
vn 0 0 -1
vn 0 0 -1
vn 0 0 -1
vn 0 0 -1
vn 0 0 -1
vn 0 0 -1
vn 0 0 -1
vn 0 1 0
vn 0 1 0
vn 0 1 0
vn 0 1 0
vn 0 1 0
vn 0 1 0
vn 0 1 0
vn 0 1 0
vn 0 1 0
vn 0 1 0
vn 0 1 0
vn 0 1 0
vn 1 -2.117146E-14 1.851982E-06
vn 1 -2.117146E-14 1.851982E-06
vn 1 -2.117146E-14 1.851982E-06
vn 1 -2.117146E-14 1.851982E-06
vn 1 -2.117146E-14 1.851982E-06
vn 1 -2.117146E-14 1.851982E-06
vn -1 0 0
vn -1 0 0
vn -1 0 0
vn -1 0 0
vn -1 0 0
vn -1 0 0
vn -1 0 0
vn -1 0 0
vn -1 0 0
vn -1 0 0
vn -1 0 0
vn -1 0 0
vn 0 0 1
vn 0 0 1
vn 0 0 1
vn 0 0 1
vn 0 0 1
vn 0 0 1
vn 0 -1 0
vn 0 -1 0
vn 0 -1 0
vn 0 -1 0
vn 0 -1 0
vn 0 -1 0
vn 0 0 -1
vn 0 0 -1
vn 0 0 -1
vn 0 0 -1
vn 0 0 -1
vn 0 0 -1
vn 0 0 -1
vn 0 0 -1
vn 0 0 -1
vn 0 0 -1
vn 0 0 -1
vn 0 0 -1
vn 0 1 0
vn 0 1 0
vn 0 1 0
vn 0 1 0
vn 0 1 0
vn 0 1 0
vn 0 1 0
vn 0 1 0
vn 0 1 0
vn 0 1 0
vn 0 1 0
vn 0 1 0
vn 1 0 0
vn 1 0 0
vn 1 0 0
vn 1 0 0
vn 1 0 0
vn 1 0 0
vn 1 0 0
vn 1 0 0
vn 1 0 0
vn 1 0 0
vn 1 0 0
vn 1 0 0
vn -1 0 0
vn -1 0 0
vn -1 0 0
vn -1 0 0
vn -1 0 0
vn -1 0 0
vn 0 0 1
vn 0 0 1
vn 0 0 1
vn 0 0 1
vn 0 0 1
vn 0 0 1
vn 0 -1 0
vn 0 -1 0
vn 0 -1 0
vn 0 -1 0
vn 0 -1 0
vn 0 -1 0
vn 0 -1 0
vn 0 -1 0
vn 0 -1 0
vn 0 -1 0
vn 0 -1 0
vn 0 -1 0
vn 0 0 -1
vn 0 0 -1
vn 0 0 -1
vn 0 0 -1
vn 0 0 -1
vn 0 0 -1
vn 0 0 -1
vn 0 0 -1
vn 0 0 -1
vn 0 0 -1
vn 0 0 -1
vn 0 0 -1
vn 0 1 0
vn 0 1 0
vn 0 1 0
vn 0 1 0
vn 0 1 0
vn 0 1 0
vn 1 -2.801023E-14 1.851982E-06
vn 1 -2.801023E-14 1.851982E-06
vn 1 -2.801023E-14 1.851982E-06
vn 1 -2.801023E-14 1.851982E-06
vn 1 -2.801023E-14 1.851982E-06
vn 1 -2.801023E-14 1.851982E-06
vn -1 0 0
vn -1 0 0
vn -1 0 0
vn -1 0 0
vn -1 0 0
vn -1 0 0
vn -1 0 0
vn -1 0 0
vn -1 0 0
vn -1 0 0
vn -1 0 0
vn -1 0 0
vn 0 0 1
vn 0 0 1
vn 0 0 1
vn 0 0 1
vn 0 0 1
vn 0 0 1
vn 0 -1 0
vn 0 -1 0
vn 0 -1 0
vn 0 -1 0
vn 0 -1 0
vn 0 -1 0
vn 0 -1 0
vn 0 -1 0
vn 0 -1 0
vn 0 -1 0
vn 0 -1 0
vn 0 -1 0
vn 0 0 -1
vn 0 0 -1
vn 0 0 -1
vn 0 0 -1
vn 0 0 -1
vn 0 0 -1
vn 0 0 -1
vn 0 0 -1
vn 0 0 -1
vn 0 0 -1
vn 0 0 -1
vn 0 0 -1
vn 0 1 0
vn 0 1 0
vn 0 1 0
vn 0 1 0
vn 0 1 0
vn 0 1 0
vn 1 0 0
vn 1 0 0
vn 1 0 0
vn 1 0 0
vn 1 0 0
vn 1 0 0
vn 1 0 0
vn 1 0 0
vn 1 0 0
vn 1 0 0
vn 1 0 0
vn 1 0 0
vn -1 0 0
vn -1 0 0
vn -1 0 0
vn -1 0 0
vn -1 0 0
vn -1 0 0
vn 0 0 1
vn 0 0 1
vn 0 0 1
vn 0 0 1
vn 0 0 1
vn 0 0 1
vn 0 0 1
vn 0 0 1
vn 0 0 1
vn 0 0 1
vn 0 0 1
vn 0 0 1
vn 0 -1 0
vn 0 -1 0
vn 0 -1 0
vn 0 -1 0
vn 0 -1 0
vn 0 -1 0
vn 0 -1 0
vn 0 -1 0
vn 0 -1 0
vn 0 -1 0
vn 0 -1 0
vn 0 -1 0
vn 0 0 -1
vn 0 0 -1
vn 0 0 -1
vn 0 0 -1
vn 0 0 -1
vn 0 0 -1
vn 0 1 0
vn 0 1 0
vn 0 1 0
vn 0 1 0
vn 0 1 0
vn 0 1 0
vn 1 0 0
vn 1 0 0
vn 1 0 0
vn 1 0 0
vn 1 0 0
vn 1 0 0
vn -1 0 0
vn -1 0 0
vn -1 0 0
vn -1 0 0
vn -1 0 0
vn -1 0 0
vn -1 0 0
vn -1 0 0
vn -1 0 0
vn -1 0 0
vn -1 0 0
vn -1 0 0
vn 0 0 1
vn 0 0 1
vn 0 0 1
vn 0 0 1
vn 0 0 1
vn 0 0 1
vn 0 0 1
vn 0 0 1
vn 0 0 1
vn 0 0 1
vn 0 0 1
vn 0 0 1
vn 0 -1 0
vn 0 -1 0
vn 0 -1 0
vn 0 -1 0
vn 0 -1 0
vn 0 -1 0
vn 0 -1 0
vn 0 -1 0
vn 0 -1 0
vn 0 -1 0
vn 0 -1 0
vn 0 -1 0
vn 0 0 -1
vn 0 0 -1
vn 0 0 -1
vn 0 0 -1
vn 0 0 -1
vn 0 0 -1
vn 0 1 0
vn 0 1 0
vn 0 1 0
vn 0 1 0
vn 0 1 0
vn 0 1 0
vn 1 1.939711E-07 5.240562E-07
vn 1 0 0
vn 1 0 0
vn 1 1.939711E-07 5.240562E-07
vn 1 0 0
vn 1 2.974331E-07 5.240562E-07
vn 1 1.939711E-07 5.240562E-07
vn 1 2.974331E-07 5.240562E-07
vn 1 9.050908E-08 1.048113E-06
vn 1 -2.06924E-07 -1.246645E-16
vn 1 1.939711E-07 5.240562E-07
vn 1 9.050908E-08 1.048113E-06
vn 1 -1.379493E-07 6.987418E-07
vn 1 -2.06924E-07 -1.246645E-16
vn 1 9.050908E-08 1.048113E-06
vn 1 6.42091E-15 2.096225E-06
vn 1 -1.379493E-07 6.987418E-07
vn 1 9.050908E-08 1.048113E-06
vn 1 2.974331E-07 5.240562E-07
vn 1 0 0
vn 1 0 0
vn 1 2.974331E-07 5.240562E-07
vn 1 0 0
vn 1 0 0
vn 1 -2.06924E-07 -1.246645E-16
vn 1 -1.379493E-07 6.987418E-07
vn 1 0 0
vn 1 -2.06924E-07 -1.246645E-16
vn 1 0 0
vn 1 0 0
vn 0.9369829 0.3493753 1.160155E-06
vn 0.936983 0.3493748 2.311095E-06
vn 0.9369829 0.3493753 1.160155E-06
vn 0.9369829 0.3493753 1.160155E-06
vn 0.9369829 0.3493753 1.160155E-06
vn 0.9369827 0.3493758 9.214333E-09
vn -0.9530568 -0.3027918 -6.128041E-09
vn -0.9530568 -0.3027918 -6.128041E-09
vn -0.9530568 -0.3027918 -6.128041E-09
vn -0.9530568 -0.3027918 -6.128041E-09
vn -0.9530568 -0.3027918 -6.128041E-09
vn -0.9530568 -0.3027918 -6.128041E-09
vn -1 0 0
vn -1 0 0
vn -1 0 0
vn -1 0 0
vn -1 0 0
vn -1 0 0
vn -1 0 0
vn -1 0 0
vn -1 0 0
vn -1 0 0
vn -1 0 0
vn -1 0 0
vn -1 0 0
vn -1 0 0
vn -1 0 0
vn -1 0 0
vn -1 0 0
vn -1 0 0
vn -1 0 0
vn -1 0 0
vn -1 0 0
vn -1 0 0
vn -1 0 0
vn -1 0 0
vn -1 0 0
vn -1 0 0
vn -1 0 0
vn -1 0 0
vn -1 0 0
vn -1 0 0
vn 0 0 1
vn 0 0 1
vn 0 0 1
vn 0 0 1
vn 0 0 1
vn 0 0 1
vn 0 0 1
vn 0 0 1
vn 0 0 1
vn 0 0 1
vn 0 0 1
vn 0 0 1
vn 0 0 1
vn 0 0 1
vn 0 0 1
vn 0 0 1
vn 0 0 1
vn 0 0 1
vn 0 0 1
vn 0 0 1
vn 0 0 1
vn 0 0 1
vn 0 0 1
vn 0 0 1
vn 0 0 1
vn 0 0 1
vn 0 0 1
vn 0 0 1
vn 0 0 1
vn 0 0 1
vn 3.290205E-07 -2.473996E-07 -1
vn 3.701481E-07 2.137433E-08 -1
vn 4.935308E-07 5.889354E-15 -1
vn 1.233827E-07 -3.924737E-07 -1
vn 0 0 -1
vn 3.701481E-07 2.137433E-08 -1
vn 1.233827E-07 -3.924737E-07 -1
vn 3.701481E-07 2.137433E-08 -1
vn 3.290205E-07 -2.473996E-07 -1
vn 1.233827E-07 -3.924737E-07 -1
vn 3.290205E-07 -2.473996E-07 -1
vn 1.901188E-07 -3.137387E-07 -1
vn 2.237699E-07 -4.13848E-07 -1
vn 1.233827E-07 -3.924737E-07 -1
vn 1.901188E-07 -3.137387E-07 -1
vn 4.81375E-07 2.889963E-08 -1
vn 2.237699E-07 -4.13848E-07 -1
vn 1.901188E-07 -3.137387E-07 -1
vn 3.321951E-07 2.889963E-08 -1
vn 4.81375E-07 2.889963E-08 -1
vn 1.901188E-07 -3.137387E-07 -1
vn 0 0 -1
vn 3.321951E-07 2.889963E-08 -1
vn 1.901188E-07 -3.137387E-07 -1
vn 4.935308E-07 5.889354E-15 -1
vn 3.701481E-07 2.137433E-08 -1
vn 4.935308E-07 5.889354E-15 -1
vn 4.81375E-07 2.889963E-08 -1
vn 3.321951E-07 2.889963E-08 -1
vn 4.935309E-07 1.618351E-14 -1
vn 0 -1 0
vn 0 -1 0
vn 0 -1 0
vn 0 -1 0
vn 0 -1 0
vn 0 -1 0
vn 0 -1 0
vn 0 -1 0
vn 0 -1 0
vn 0 -1 0
vn 0 -1 0
vn 0 -1 0
vn 0 -1 0
vn 0 -1 0
vn 0 -1 0
vn 0 -1 0
vn 0 -1 0
vn 0 -1 0
vn 0 -1 0
vn 0 -1 0
vn 0 -1 0
vn 0 -1 0
vn 0 -1 0
vn 0 -1 0
vn 0 -1 0
vn 0 -1 0
vn 0 -1 0
vn 0 -1 0
vn 0 -1 0
vn 0 -1 0
vn 0 0 -1
vn 0 0 -1
vn 0 0 -1
vn 0 0 -1
vn 0 0 -1
vn 0 0 -1
vn 0 0 -1
vn 0 0 -1
vn 0 0 -1
vn 0 0 -1
vn 0 0 -1
vn 0 0 -1
vn 0 0 -1
vn 0 0 -1
vn 0 0 -1
vn 0 0 -1
vn 0 0 -1
vn 0 0 -1
vn 0 0 -1
vn 0 0 -1
vn 0 0 -1
vn 0 0 -1
vn 0 0 -1
vn 0 0 -1
vn 0 0 1
vn 0 0 1
vn 0 0 1
vn 0 0 1
vn 0 0 1
vn 0 0 1
vn 0 0 1
vn 0 0 1
vn 0 0 1
vn 0 0 1
vn 0 0 1
vn 0 0 1
vn 0 0 1
vn 0 0 1
vn 0 0 1
vn 0 0 1
vn 0 0 1
vn 0 0 1
vn 0 0 1
vn 0 0 1
vn 0 0 1
vn 0 0 1
vn 0 0 1
vn 0 0 1
vn 0 1 0
vn 0 1 0
vn 0 1 0
vn 0 1 0
vn 0 1 0
vn 0 1 0
vn 0 1 0
vn 0 1 0
vn 0 1 0
vn 0 1 0
vn 0 1 0
vn 0 1 0
vn 0 1 0
vn 0 1 0
vn 0 1 0
vn 0 1 0
vn 0 1 0
vn 0 1 0
vn 0 1 0
vn 0 1 0
vn 0 1 0
vn 0 1 0
vn 0 1 0
vn 0 1 0
vn 0 1 0
vn 0 1 0
vn 0 1 0
vn 0 1 0
vn 0 1 0
vn 0 1 0
vn 0 1 0
vn 0 1 0
vn 0 1 0
vn 0 1 0
vn 0 1 0
vn 0 1 0
vn 0 1 0
vn 0 1 0
vn 0 1 0
vn 0 1 0
vn 0 1 0
vn 0 1 0
vn 0 1 0
vn 0 1 0
vn 0 1 0
vn 0 1 0
vn 0 1 0
vn 0 1 0
vn 0 1 0
vn 0 1 0
vn 0 1 0
vn 0 1 0
vn 0 1 0
vn 0 1 0
vn 0 1 0
vn 0 1 0
vn 0 1 0
vn 0 1 0
vn 0 1 0
vn 0 1 0
vn 0 1 0
vn 0 1 0
vn 0 1 0
vn 0 1 0
vn 0 1 0
vn 0 1 0
vn 0 1 0
vn 0 1 0
vn 0 1 0
vn 0 1 0
vn 0 1 0
vn 0 1 0
vn 0 1 0
vn 0 1 0
vn 0 1 0
vn 0 1 0
vn 0 1 0
vn 0 1 0
vn 0 1 0
vn 0 1 0
vn 0 1 0
vn 0 1 0
vn 0 1 0
vn 0 1 0
vn 0 1 0
vn 0 1 0
vn 0 1 0
vn 0 1 0
vn 0 1 0
vn 0 1 0
vn 0 1 0
vn 0 1 0
vn 0 1 0
vn 0 1 0
vn 0 1 0
vn 0 1 0
vn 0.9530575 -0.3027896 -3.828026E-10
vn 0.9530575 -0.3027896 -3.828026E-10
vn 0.9530575 -0.3027896 0
vn 0.9530575 -0.3027896 -3.828026E-10
vn 0.9530575 -0.3027896 0
vn 0.9530575 -0.3027896 0
vn 0.9530573 -0.3027902 2.018428E-09
vn 0.9530573 -0.3027902 1.110223E-16
vn 0.9530573 -0.3027902 5.551115E-17
vn 0.9530573 -0.3027902 2.018428E-09
vn 0.9530573 -0.3027902 5.551115E-17
vn 0.9530573 -0.3027902 2.018428E-09
vn 0.9530573 -0.3027902 -2.018428E-09
vn 0.9530573 -0.3027902 -2.018428E-09
vn 0.9530573 -0.3027902 5.551115E-17
vn 0.9530573 -0.3027902 -2.018428E-09
vn 0.9530573 -0.3027902 5.551115E-17
vn 0.9530573 -0.3027902 1.110223E-16
vn 0.9530575 -0.3027896 3.828026E-10
vn 0.9530575 -0.3027896 0
vn 0.9530575 -0.3027896 0
vn 0.9530575 -0.3027896 3.828026E-10
vn 0.9530575 -0.3027896 0
vn 0.9530575 -0.3027896 3.828026E-10
vn -0.9369826 0.349376 2.244945E-09
vn -0.9369826 0.349376 2.244945E-09
vn -0.9369826 0.349376 2.244945E-09
vn -0.9369826 0.349376 2.244945E-09
vn -0.9369826 0.349376 2.244945E-09
vn -0.9369826 0.349376 2.244945E-09
vn -0.9369828 0.3493756 2.721807E-09
vn -0.9369828 0.3493756 0
vn -0.9369828 0.3493756 0
vn -0.9369828 0.3493756 2.721807E-09
vn -0.9369828 0.3493756 0
vn -0.9369828 0.3493756 2.721807E-09
vn -0.9369828 0.3493756 -2.721807E-09
vn -0.9369828 0.3493756 -2.721807E-09
vn -0.9369828 0.3493756 0
vn -0.9369828 0.3493756 -2.721807E-09
vn -0.9369828 0.3493756 0
vn -0.9369828 0.3493756 0
vn -0.9369823 0.3493769 -2.312099E-06
vn -0.9369826 0.349376 -4.61947E-06
vn -0.9369823 0.3493769 -2.312099E-06
vn -0.9369823 0.3493769 -2.312099E-06
vn -0.9369823 0.3493769 -2.312099E-06
vn -0.9369819 0.3493779 -4.728625E-09
vn 0 -1 0
vn 0 -1 0
vn 0 -1 0
vn 0 -1 0
vn 0 -1 0
vn 0 -1 0
vn 0 -1 0
vn 0 -1 0
vn 0 -1 0
vn 0 -1 0
vn 0 -1 0
vn 0 -1 0
vn 0 -1 0
vn 0 -1 0
vn 0 -1 0
vn 0 -1 0
vn 0 -1 0
vn 0 -1 0
vn 0 -1 0
vn 0 -1 0
vn 0 -1 0
vn 0 -1 0
vn 0 -1 0
vn 0 -1 0

vt 0.08090121 0.5711749
vt 0.07865833 0.5735133
vt 0.07865833 0.585283
vt 0.08090121 0.5711749
vt 0.07865833 0.585283
vt 0.08090121 0.585283
vt 0.07865833 0.5735133
vt 0.08090121 0.5711749
vt 0.06242569 0.5711749
vt 0.07865833 0.5735133
vt 0.06242569 0.5711749
vt 0.06242569 0.5735133
vt 0.09039146 0.530147
vt 0.07777512 0.530147
vt 0.07777512 0.5399442
vt 0.09039146 0.530147
vt 0.07777512 0.5399442
vt 0.09039146 0.5399442
vt 0.04386541 0.5705103
vt 0.06175633 0.5730689
vt 0.06175633 0.5705103
vt 0.04608402 0.5730689
vt 0.06175633 0.5730689
vt 0.04386541 0.5705103
vt 0.04608402 0.5859476
vt 0.04608402 0.5730689
vt 0.04386541 0.5705103
vt 0.04386541 0.5859476
vt 0.04608402 0.5859476
vt 0.04386541 0.5705103
vt 0.05096543 0.5509561
vt 0.05096543 0.5414689
vt 0.03834909 0.5414689
vt 0.05096543 0.5509561
vt 0.03834909 0.5414689
vt 0.03834909 0.5509561
vt 0.1033338 0.5631863
vt 0.09111673 0.5631863
vt 0.09111673 0.5739065
vt 0.1033338 0.5631863
vt 0.09111673 0.5739065
vt 0.1033338 0.5739065
vt 0.0421335 0.5232532
vt 0.04010592 0.5251272
vt 0.04010592 0.5386905
vt 0.0421335 0.5232532
vt 0.04010592 0.5386905
vt 0.0421335 0.5386905
vt 0.04010592 0.5251272
vt 0.0421335 0.5232532
vt 0.02578311 0.5232532
vt 0.04010592 0.5251272
vt 0.02578311 0.5232532
vt 0.02578311 0.5251272
vt 0.06410742 0.5859817
vt 0.05149114 0.5859817
vt 0.05149114 0.5957789
vt 0.06410742 0.5859817
vt 0.05149114 0.5957789
vt 0.06410742 0.5957789
vt 0.06532151 0.5702058
vt 0.07793778 0.5718296
vt 0.07793778 0.5702058
vt 0.06685305 0.5718296
vt 0.07793778 0.5718296
vt 0.06532151 0.5702058
vt 0.06685305 0.580003
vt 0.06685305 0.5718296
vt 0.06532151 0.5702058
vt 0.06532151 0.580003
vt 0.06685305 0.580003
vt 0.06532151 0.5702058
vt 0.1171642 0.5250764
vt 0.1155941 0.5268533
vt 0.1155941 0.5357968
vt 0.1171642 0.5250764
vt 0.1155941 0.5357968
vt 0.1171642 0.5357968
vt 0.1155941 0.5268533
vt 0.1171642 0.5250764
vt 0.1049471 0.5250764
vt 0.1155941 0.5268533
vt 0.1049471 0.5250764
vt 0.1049471 0.5268533
vt 0.05096543 0.5397892
vt 0.05096543 0.530302
vt 0.03834909 0.530302
vt 0.05096543 0.5397892
vt 0.03834909 0.530302
vt 0.03834909 0.5397892
vt 0.09111673 0.5627396
vt 0.1033338 0.5627396
vt 0.1033338 0.5520194
vt 0.09111673 0.5627396
vt 0.1033338 0.5520194
vt 0.09111673 0.5520194
vt 0.02536982 0.5480269
vt 0.02383822 0.5575141
vt 0.02536982 0.5575141
vt 0.02383822 0.5492461
vt 0.02383822 0.5575141
vt 0.02536982 0.5480269
vt 0.01275349 0.5492461
vt 0.02383822 0.5492461
vt 0.02536982 0.5480269
vt 0.01275349 0.5480269
vt 0.01275349 0.5492461
vt 0.02536982 0.5480269
vt 0.06242569 0.5554225
vt 0.08090121 0.5577609
vt 0.08090121 0.5554225
vt 0.06457838 0.5577609
vt 0.08090121 0.5577609
vt 0.06242569 0.5554225
vt 0.06457838 0.5695307
vt 0.06457838 0.5577609
vt 0.06242569 0.5554225
vt 0.06242569 0.5695307
vt 0.06457838 0.5695307
vt 0.06242569 0.5554225
vt 0.09039146 0.5413139
vt 0.07777512 0.5413139
vt 0.07777512 0.5511111
vt 0.09039146 0.5413139
vt 0.07777512 0.5511111
vt 0.09039146 0.5511111
vt 0.1164758 0.5855201
vt 0.1042587 0.5855201
vt 0.1042587 0.5962405
vt 0.1164758 0.5855201
vt 0.1042587 0.5962405
vt 0.1164758 0.5962405
vt 0.05096543 0.5638028
vt 0.03834909 0.5638028
vt 0.03834909 0.57329
vt 0.05096543 0.5638028
vt 0.03834909 0.57329
vt 0.05096543 0.57329
vt 0.06175633 0.5390056
vt 0.05953772 0.5415642
vt 0.05953772 0.5544429
vt 0.06175633 0.5390056
vt 0.05953772 0.5544429
vt 0.06175633 0.5544429
vt 0.05953772 0.5415642
vt 0.06175633 0.5390056
vt 0.04386541 0.5390056
vt 0.05953772 0.5415642
vt 0.04386541 0.5390056
vt 0.04386541 0.5415642
vt 0.04010594 0.5526442
vt 0.04213351 0.5390056
vt 0.04010594 0.5390056
vt 0.04213351 0.5544429
vt 0.04213351 0.5390056
vt 0.04010594 0.5526442
vt 0.02578309 0.5526442
vt 0.04213351 0.5544429
vt 0.04010594 0.5526442
vt 0.02578309 0.5544429
vt 0.04213351 0.5544429
vt 0.02578309 0.5526442
vt 0.06410742 0.5971487
vt 0.05149114 0.5971487
vt 0.05149114 0.6069459
vt 0.06410742 0.5971487
vt 0.05149114 0.6069459
vt 0.06410742 0.6069459
vt 0.07793778 0.5813727
vt 0.07646781 0.5829965
vt 0.07646781 0.59117
vt 0.07793778 0.5813727
vt 0.07646781 0.59117
vt 0.07793778 0.59117
vt 0.07646781 0.5829965
vt 0.07793778 0.5813727
vt 0.06532151 0.5813727
vt 0.07646781 0.5829965
vt 0.06532151 0.5813727
vt 0.06532151 0.5829965
vt 0.1164758 0.5743532
vt 0.1042587 0.5743532
vt 0.1042587 0.5850735
vt 0.1164758 0.5743532
vt 0.1042587 0.5850735
vt 0.1164758 0.5850735
vt 0.03834909 0.5526359
vt 0.03834909 0.5621231
vt 0.05096543 0.5621231
vt 0.03834909 0.5526359
vt 0.05096543 0.5621231
vt 0.05096543 0.5526359
vt 0.0918051 0.5139095
vt 0.1040222 0.5156863
vt 0.1040222 0.5139095
vt 0.09337515 0.5156863
vt 0.1040222 0.5156863
vt 0.0918051 0.5139095
vt 0.09337515 0.5246298
vt 0.09337515 0.5156863
vt 0.0918051 0.5139095
vt 0.0918051 0.5246298
vt 0.09337515 0.5246298
vt 0.0918051 0.5139095
vt 0.01422352 0.5827469
vt 0.01275349 0.5815277
vt 0.01275349 0.5910149
vt 0.01422352 0.5827469
vt 0.01275349 0.5910149
vt 0.01422352 0.5910149
vt 0.01275349 0.5815277
vt 0.01422352 0.5827469
vt 0.02536982 0.5827469
vt 0.01275349 0.5815277
vt 0.02536982 0.5827469
vt 0.02536982 0.5815277
vt 0.06457838 0.5523967
vt 0.06242569 0.5537783
vt 0.08090121 0.5537783
vt 0.06457838 0.5523967
vt 0.08090121 0.5537783
vt 0.08090121 0.5523967
vt 0.06242569 0.5537783
vt 0.06457838 0.5523967
vt 0.06457838 0.5396702
vt 0.06242569 0.5537783
vt 0.06457838 0.5396702
vt 0.06242569 0.5396702
vt 0.07724941 0.5971487
vt 0.06463313 0.5971487
vt 0.06463313 0.6069459
vt 0.07724941 0.5971487
vt 0.06463313 0.6069459
vt 0.07724941 0.6069459
vt 0.1042587 0.5627396
vt 0.1164758 0.5627396
vt 0.1164758 0.5520194
vt 0.1042587 0.5627396
vt 0.1164758 0.5520194
vt 0.1042587 0.5520194
vt 0.02781066 0.5841489
vt 0.02578309 0.5859476
vt 0.04213351 0.5859476
vt 0.02781066 0.5841489
vt 0.04213351 0.5859476
vt 0.04213351 0.5841489
vt 0.02578309 0.5859476
vt 0.02781066 0.5841489
vt 0.02781066 0.5705103
vt 0.02578309 0.5859476
vt 0.02781066 0.5705103
vt 0.02578309 0.5705103
vt 0.05953772 0.5371787
vt 0.06175631 0.5232532
vt 0.05953772 0.5232532
vt 0.06175631 0.5386905
vt 0.06175631 0.5232532
vt 0.05953772 0.5371787
vt 0.04386543 0.5371787
vt 0.06175631 0.5386905
vt 0.05953772 0.5371787
vt 0.04386543 0.5386905
vt 0.06175631 0.5386905
vt 0.04386543 0.5371787
vt 0.03782344 0.5509561
vt 0.03782344 0.5414689
vt 0.0252071 0.5414689
vt 0.03782344 0.5509561
vt 0.0252071 0.5414689
vt 0.0252071 0.5509561
vt 0.06410742 0.5524809
vt 0.05149114 0.5524809
vt 0.05149114 0.5622781
vt 0.06410742 0.5524809
vt 0.05149114 0.5622781
vt 0.06410742 0.5622781
vt 0.07646781 0.5567096
vt 0.07793778 0.5478719
vt 0.07646781 0.5478719
vt 0.07793778 0.5576691
vt 0.07793778 0.5478719
vt 0.07646781 0.5567096
vt 0.06532151 0.5567096
vt 0.07793778 0.5576691
vt 0.07646781 0.5567096
vt 0.06532151 0.5576691
vt 0.07793778 0.5576691
vt 0.06532151 0.5567096
vt 0.1164758 0.5408524
vt 0.1042587 0.5408524
vt 0.1042587 0.5515727
vt 0.1164758 0.5408524
vt 0.1042587 0.5515727
vt 0.1164758 0.5515727
vt 0.03704178 0.5939139
vt 0.02589548 0.5926947
vt 0.02589548 0.5939139
vt 0.03851181 0.5926947
vt 0.02589548 0.5926947
vt 0.03704178 0.5939139
vt 0.03704178 0.6021819
vt 0.03851181 0.5926947
vt 0.03704178 0.5939139
vt 0.03851181 0.6021819
vt 0.03851181 0.5926947
vt 0.03704178 0.6021819
vt 0.08023316 0.5794147
vt 0.07866311 0.5804645
vt 0.09088022 0.5804645
vt 0.08023316 0.5794147
vt 0.09088022 0.5804645
vt 0.09088022 0.5794147
vt 0.07866311 0.5804645
vt 0.08023316 0.5794147
vt 0.08023316 0.5697442
vt 0.07866311 0.5804645
vt 0.08023316 0.5697442
vt 0.07866311 0.5697442
vt 0.01206511 0.6067908
vt 0.02468145 0.6067908
vt 0.02468145 0.5973037
vt 0.01206511 0.6067908
vt 0.02468145 0.5973037
vt 0.01206511 0.5973037
vt 0.07941157 0.5366443
vt 0.08090121 0.5239178
vt 0.07941157 0.5239178
vt 0.08090121 0.5380259
vt 0.08090121 0.5239178
vt 0.07941157 0.5366443
vt 0.06242569 0.5366443
vt 0.08090121 0.5380259
vt 0.07941157 0.5366443
vt 0.06242569 0.5380259
vt 0.08090121 0.5380259
vt 0.06242569 0.5366443
vt 0.09039146 0.51898
vt 0.07777512 0.51898
vt 0.07777512 0.5287772
vt 0.09039146 0.51898
vt 0.07777512 0.5287772
vt 0.09039146 0.5287772
vt 0.04608402 0.5686834
vt 0.04386543 0.5701953
vt 0.06175631 0.5701953
vt 0.04608402 0.5686834
vt 0.06175631 0.5701953
vt 0.06175631 0.5686834
vt 0.04386543 0.5701953
vt 0.04608402 0.5686834
vt 0.04608402 0.554758
vt 0.04386543 0.5701953
vt 0.04608402 0.554758
vt 0.04386543 0.554758
vt 0.02578311 0.554758
vt 0.0421335 0.5560026
vt 0.0421335 0.554758
vt 0.02781066 0.5560026
vt 0.0421335 0.5560026
vt 0.02578311 0.554758
vt 0.02781066 0.5701953
vt 0.02781066 0.5560026
vt 0.02578311 0.554758
vt 0.02578311 0.5701953
vt 0.02781066 0.5701953
vt 0.02578311 0.554758
vt 0.1033338 0.5296854
vt 0.09111673 0.5296854
vt 0.09111673 0.5404058
vt 0.1033338 0.5296854
vt 0.09111673 0.5404058
vt 0.1033338 0.5404058
vt 0.0252071 0.5286222
vt 0.03782344 0.5286222
vt 0.03782344 0.5191351
vt 0.0252071 0.5286222
vt 0.03782344 0.5191351
vt 0.0252071 0.5191351
vt 0.06410742 0.5636478
vt 0.05149114 0.5636478
vt 0.05149114 0.573445
vt 0.06410742 0.5636478
vt 0.05149114 0.573445
vt 0.06410742 0.573445
vt 0.06633872 0.5455427
vt 0.06532151 0.5465021
vt 0.07793778 0.5465021
vt 0.06633872 0.5455427
vt 0.07793778 0.5465021
vt 0.07793778 0.5455427
vt 0.06532151 0.5465021
vt 0.06633872 0.5455427
vt 0.06633872 0.536705
vt 0.06532151 0.5465021
vt 0.06633872 0.536705
vt 0.06532151 0.536705
vt 0.1024522 0.5794147
vt 0.1040222 0.5697442
vt 0.1024522 0.5697442
vt 0.1040222 0.5804645
vt 0.1040222 0.5697442
vt 0.1024522 0.5794147
vt 0.0918051 0.5794147
vt 0.1040222 0.5804645
vt 0.1024522 0.5794147
vt 0.0918051 0.5804645
vt 0.1040222 0.5804645
vt 0.0918051 0.5794147
vt 0.02589548 0.5591938
vt 0.02691269 0.5604131
vt 0.03851181 0.5604131
vt 0.02589548 0.5591938
vt 0.03851181 0.5604131
vt 0.03851181 0.5591938
vt 0.02691269 0.5604131
vt 0.02589548 0.5591938
vt 0.02589548 0.568681
vt 0.02691269 0.5604131
vt 0.02589548 0.568681
vt 0.02691269 0.568681
vt 0.07797474 0.6074074
vt 0.09019184 0.6074074
vt 0.09019184 0.5966871
vt 0.07797474 0.6074074
vt 0.09019184 0.5966871
vt 0.07797474 0.5966871
vt 0.01206511 0.584457
vt 0.02468145 0.584457
vt 0.02468145 0.5749698
vt 0.01206511 0.584457
vt 0.02468145 0.5749698
vt 0.01206511 0.5749698
vt 0.1672964 0.738671
vt 0.1672964 0.730757
vt 0.1654678 0.730757
vt 0.1672964 0.738671
vt 0.1654678 0.730757
vt 0.1620103 0.730757
vt 0.1672964 0.738671
vt 0.1620103 0.730757
vt 0.1601716 0.730757
vt 0.165383 0.738671
vt 0.1672964 0.738671
vt 0.1601716 0.730757
vt 0.1620103 0.738671
vt 0.165383 0.738671
vt 0.1601716 0.730757
vt 0.1601716 0.738671
vt 0.1620103 0.738671
vt 0.1601716 0.730757
vt 0.1620103 0.730757
vt 0.1654678 0.730757
vt 0.1654678 0.7294087
vt 0.1620103 0.730757
vt 0.1654678 0.7294087
vt 0.1620103 0.7294087
vt 0.165383 0.738671
vt 0.1620103 0.738671
vt 0.1620103 0.7401289
vt 0.165383 0.738671
vt 0.1620103 0.7401289
vt 0.165383 0.7401289
vt 0.2921126 0.4670016
vt 0.2860907 0.4670016
vt 0.2860907 0.4777219
vt 0.2921126 0.4670016
vt 0.2860907 0.4777219
vt 0.2921126 0.4777219
vt 0.3209536 0.4111668
vt 0.3098177 0.4111668
vt 0.3098177 0.4218872
vt 0.3209536 0.4111668
vt 0.3098177 0.4218872
vt 0.3209536 0.4218872
vt 0.1935805 0.7051702
vt 0.1935805 0.6972561
vt 0.1917417 0.6972561
vt 0.1935805 0.7051702
vt 0.1917417 0.6972561
vt 0.1882842 0.6972561
vt 0.1935805 0.7051702
vt 0.1882842 0.6972561
vt 0.1864556 0.6972561
vt 0.1917417 0.7051702
vt 0.1935805 0.7051702
vt 0.1864556 0.6972561
vt 0.1883691 0.7051702
vt 0.1917417 0.7051702
vt 0.1864556 0.6972561
vt 0.1864556 0.7051702
vt 0.1883691 0.7051702
vt 0.1864556 0.6972561
vt 0.1882842 0.6972561
vt 0.1917417 0.6972561
vt 0.1917417 0.6959078
vt 0.1882842 0.6972561
vt 0.1917417 0.6959078
vt 0.1882842 0.6959078
vt 0.1917417 0.7051702
vt 0.1883691 0.7051702
vt 0.1883691 0.7066281
vt 0.1917417 0.7051702
vt 0.1883691 0.7066281
vt 0.1917417 0.7066281
vt 0.2110744 0.7320821
vt 0.2215352 0.7320821
vt 0.2110744 0.7311791
vt 0.2226102 0.7373821
vt 0.2226102 0.7320821
vt 0.2215352 0.7320821
vt 0.2226102 0.7373821
vt 0.2215352 0.7320821
vt 0.2110744 0.7320821
vt 0.2226102 0.7373821
vt 0.2110744 0.7320821
vt 0.2099939 0.7320821
vt 0.2215352 0.7373821
vt 0.2226102 0.7373821
vt 0.2099939 0.7320821
vt 0.2215352 0.7383585
vt 0.2215352 0.7373821
vt 0.2099939 0.7320821
vt 0.2110744 0.7373821
vt 0.2215352 0.7383585
vt 0.2099939 0.7320821
vt 0.2099939 0.7373821
vt 0.2110744 0.7373821
vt 0.2099939 0.7320821
vt 0.2110744 0.7311791
vt 0.2215352 0.7320821
vt 0.2215352 0.7311791
vt 0.2215352 0.7383585
vt 0.2110744 0.7373821
vt 0.2110744 0.7383585
vt 0.1979268 0.6985812
vt 0.2083876 0.6985812
vt 0.1979268 0.6976783
vt 0.2094682 0.7038813
vt 0.2094682 0.6985812
vt 0.2083876 0.6985812
vt 0.2094682 0.7038813
vt 0.2083876 0.6985812
vt 0.1979268 0.6985812
vt 0.2094682 0.7038813
vt 0.1979268 0.6985812
vt 0.1968519 0.6985812
vt 0.2083876 0.7038813
vt 0.2094682 0.7038813
vt 0.1968519 0.6985812
vt 0.2083876 0.7048577
vt 0.2083876 0.7038813
vt 0.1968519 0.6985812
vt 0.1979268 0.7038813
vt 0.2083876 0.7048577
vt 0.1968519 0.6985812
vt 0.1968519 0.7038813
vt 0.1979268 0.7038813
vt 0.1968519 0.6985812
vt 0.1979268 0.6976783
vt 0.2083876 0.6985812
vt 0.2083876 0.6976783
vt 0.2083876 0.7048577
vt 0.1979268 0.7038813
vt 0.1979268 0.7048577
vt 0.1482063 0.7280439
vt 0.1517464 0.7182417
vt 0.1494309 0.7191552
vt 0.1482063 0.7280439
vt 0.1494309 0.7191552
vt 0.1482063 0.7191552
vt 0.1517464 0.7191552
vt 0.1517464 0.7182417
vt 0.1482063 0.7280439
vt 0.1494309 0.7280439
vt 0.1517464 0.7191552
vt 0.1482063 0.7280439
vt 0.1529778 0.7191552
vt 0.1517464 0.7191552
vt 0.1494309 0.7280439
vt 0.1494309 0.728962
vt 0.1529778 0.7191552
vt 0.1494309 0.7280439
vt 0.1517464 0.7280439
vt 0.1529778 0.7191552
vt 0.1494309 0.728962
vt 0.1529778 0.7280439
vt 0.1529778 0.7191552
vt 0.1517464 0.7280439
vt 0.1494309 0.7191552
vt 0.1517464 0.7182417
vt 0.1494309 0.7182417
vt 0.1517464 0.7280439
vt 0.1494309 0.728962
vt 0.1517464 0.728962
vt 0.3318694 0.4401605
vt 0.3348358 0.4366006
vt 0.3327833 0.4377159
vt 0.3328521 0.4411212
vt 0.3348358 0.4366006
vt 0.3318694 0.4401605
vt 0.325186 0.4401605
vt 0.3328521 0.4411212
vt 0.3318694 0.4401605
vt 0.3242032 0.4411212
vt 0.3328521 0.4411212
vt 0.325186 0.4401605
vt 0.3222195 0.4366006
vt 0.3327833 0.4377159
vt 0.3348358 0.4366006
vt 0.3242719 0.4377159
vt 0.3327833 0.4377159
vt 0.3222195 0.4366006
vt 0.325186 0.4401605
vt 0.3242719 0.4377159
vt 0.3222195 0.4366006
vt 0.3242032 0.4411212
vt 0.325186 0.4401605
vt 0.3222195 0.4366006
vt 0.3450114 0.4736614
vt 0.3479778 0.4701014
vt 0.3459253 0.4712167
vt 0.3459941 0.474622
vt 0.3479778 0.4701014
vt 0.3450114 0.4736614
vt 0.3383279 0.4736614
vt 0.3459941 0.474622
vt 0.3450114 0.4736614
vt 0.3373452 0.474622
vt 0.3459941 0.474622
vt 0.3383279 0.4736614
vt 0.3353615 0.4701014
vt 0.3459253 0.4712167
vt 0.3479778 0.4701014
vt 0.3374139 0.4712167
vt 0.3459253 0.4712167
vt 0.3353615 0.4701014
vt 0.3383279 0.4736614
vt 0.3374139 0.4712167
vt 0.3353615 0.4701014
vt 0.3373452 0.474622
vt 0.3383279 0.4736614
vt 0.3353615 0.4701014
vt 0.1381808 0.681147
vt 0.1385544 0.6842942
vt 0.1385544 0.6833761
vt 0.1362957 0.6842942
vt 0.1385544 0.6842942
vt 0.1381808 0.681147
vt 0.1371325 0.681147
vt 0.1362957 0.6842942
vt 0.1381808 0.681147
vt 0.1362957 0.6833761
vt 0.1362957 0.6842942
vt 0.1371325 0.681147
vt 0.1350643 0.6833761
vt 0.1362957 0.6833761
vt 0.1371325 0.681147
vt 0.1371325 0.6767212
vt 0.1350643 0.6833761
vt 0.1371325 0.681147
vt 0.1362957 0.6744874
vt 0.1350643 0.6833761
vt 0.1371325 0.6767212
vt 0.1350643 0.6744874
vt 0.1350643 0.6833761
vt 0.1362957 0.6744874
vt 0.1381808 0.681147
vt 0.1385544 0.6833761
vt 0.1398358 0.6833761
vt 0.1398358 0.6744874
vt 0.1381808 0.681147
vt 0.1398358 0.6833761
vt 0.1381808 0.6767212
vt 0.1381808 0.681147
vt 0.1398358 0.6744874
vt 0.1385544 0.6744874
vt 0.1381808 0.6767212
vt 0.1398358 0.6744874
vt 0.1385544 0.673574
vt 0.1381808 0.6767212
vt 0.1385544 0.6744874
vt 0.1371325 0.6767212
vt 0.1381808 0.6767212
vt 0.1385544 0.673574
vt 0.1362957 0.6744874
vt 0.1371325 0.6767212
vt 0.1385544 0.673574
vt 0.1362957 0.673574
vt 0.1362957 0.6744874
vt 0.1385544 0.673574
vt 0.2609356 0.4111668
vt 0.2609356 0.416527
vt 0.2628176 0.416527
vt 0.2609356 0.4111668
vt 0.2628176 0.416527
vt 0.2628176 0.4111668
vt 0.2609356 0.4218872
vt 0.2628176 0.4218872
vt 0.2628176 0.416527
vt 0.2609356 0.4218872
vt 0.2628176 0.416527
vt 0.2609356 0.416527
vt 0.2646997 0.4218872
vt 0.2646997 0.416527
vt 0.2628176 0.416527
vt 0.2646997 0.4218872
vt 0.2628176 0.416527
vt 0.2628176 0.4218872
vt 0.2646997 0.4111668
vt 0.2628176 0.4111668
vt 0.2628176 0.416527
vt 0.2646997 0.4111668
vt 0.2628176 0.416527
vt 0.2646997 0.416527
vt 0.2609655 0.3999999
vt 0.2609655 0.40536
vt 0.2628176 0.40536
vt 0.2609655 0.3999999
vt 0.2628176 0.40536
vt 0.2628176 0.3999999
vt 0.2609655 0.4107202
vt 0.2628176 0.4107202
vt 0.2628176 0.40536
vt 0.2609655 0.4107202
vt 0.2628176 0.40536
vt 0.2609655 0.40536
vt 0.2646698 0.4107202
vt 0.2646698 0.40536
vt 0.2628176 0.40536
vt 0.2646698 0.4107202
vt 0.2628176 0.40536
vt 0.2628176 0.4107202
vt 0.2646698 0.3999999
vt 0.2628176 0.3999999
vt 0.2628176 0.40536
vt 0.2646698 0.3999999
vt 0.2628176 0.40536
vt 0.2646698 0.40536
vt 0.2835337 0.4558346
vt 0.2835337 0.4611948
vt 0.2891017 0.4611948
vt 0.2835337 0.4558346
vt 0.2891017 0.4611948
vt 0.2891017 0.4558346
vt 0.2835337 0.4665549
vt 0.2891017 0.4665549
vt 0.2891017 0.4611948
vt 0.2835337 0.4665549
vt 0.2891017 0.4611948
vt 0.2835337 0.4611948
vt 0.2946696 0.4665549
vt 0.2946696 0.4611948
vt 0.2891017 0.4611948
vt 0.2946696 0.4665549
vt 0.2891017 0.4611948
vt 0.2891017 0.4665549
vt 0.2946696 0.4558346
vt 0.2891017 0.4558346
vt 0.2891017 0.4611948
vt 0.2946696 0.4558346
vt 0.2891017 0.4611948
vt 0.2946696 0.4611948
vt 0.3123747 0.3999999
vt 0.3123747 0.40536
vt 0.3153856 0.40536
vt 0.3123747 0.3999999
vt 0.3153856 0.40536
vt 0.3153856 0.3999999
vt 0.3123747 0.4107202
vt 0.3153856 0.4107202
vt 0.3153856 0.40536
vt 0.3123747 0.4107202
vt 0.3153856 0.40536
vt 0.3123747 0.40536
vt 0.3183966 0.4107202
vt 0.3183966 0.40536
vt 0.3153856 0.40536
vt 0.3183966 0.4107202
vt 0.3153856 0.40536
vt 0.3153856 0.4107202
vt 0.3183966 0.3999999
vt 0.3153856 0.3999999
vt 0.3153856 0.40536
vt 0.3183966 0.3999999
vt 0.3153856 0.40536
vt 0.3183966 0.40536
vt 0.2952087 0.3962963
vt 0.2952087 0.4407407
vt 0.3070469 0.4407407
vt 0.2952087 0.3962963
vt 0.3070469 0.4407407
vt 0.3070469 0.3962963
vt 0.2952087 0.4851852
vt 0.3070469 0.4851852
vt 0.3070469 0.4407407
vt 0.2952087 0.4851852
vt 0.3070469 0.4407407
vt 0.2952087 0.4407407
vt 0.3188851 0.4851852
vt 0.3188851 0.4407407
vt 0.3070469 0.4407407
vt 0.3188851 0.4851852
vt 0.3070469 0.4407407
vt 0.3070469 0.4851852
vt 0.3188851 0.3962963
vt 0.3070469 0.3962963
vt 0.3070469 0.4407407
vt 0.3188851 0.3962963
vt 0.3070469 0.4407407
vt 0.3188851 0.4407407

usemtl endesga64
f 3/3/3 2/2/2 1/1/1 
f 6/6/6 5/5/5 4/4/4 
f 9/9/9 8/8/8 7/7/7 
f 12/12/12 11/11/11 10/10/10 
f 15/15/15 14/14/14 13/13/13 
f 18/18/18 17/17/17 16/16/16 
f 21/21/21 20/20/20 19/19/19 
f 24/24/24 23/23/23 22/22/22 
f 27/27/27 26/26/26 25/25/25 
f 30/30/30 29/29/29 28/28/28 
f 33/33/33 32/32/32 31/31/31 
f 36/36/36 35/35/35 34/34/34 
f 39/39/39 38/38/38 37/37/37 
f 42/42/42 41/41/41 40/40/40 
f 45/45/45 44/44/44 43/43/43 
f 48/48/48 47/47/47 46/46/46 
f 51/51/51 50/50/50 49/49/49 
f 54/54/54 53/53/53 52/52/52 
f 57/57/57 56/56/56 55/55/55 
f 60/60/60 59/59/59 58/58/58 
f 63/63/63 62/62/62 61/61/61 
f 66/66/66 65/65/65 64/64/64 
f 69/69/69 68/68/68 67/67/67 
f 72/72/72 71/71/71 70/70/70 
f 75/75/75 74/74/74 73/73/73 
f 78/78/78 77/77/77 76/76/76 
f 81/81/81 80/80/80 79/79/79 
f 84/84/84 83/83/83 82/82/82 
f 87/87/87 86/86/86 85/85/85 
f 90/90/90 89/89/89 88/88/88 
f 93/93/93 92/92/92 91/91/91 
f 96/96/96 95/95/95 94/94/94 
f 99/99/99 98/98/98 97/97/97 
f 102/102/102 101/101/101 100/100/100 
f 105/105/105 104/104/104 103/103/103 
f 108/108/108 107/107/107 106/106/106 
f 111/111/111 110/110/110 109/109/109 
f 114/114/114 113/113/113 112/112/112 
f 117/117/117 116/116/116 115/115/115 
f 120/120/120 119/119/119 118/118/118 
f 123/123/123 122/122/122 121/121/121 
f 126/126/126 125/125/125 124/124/124 
f 129/129/129 128/128/128 127/127/127 
f 132/132/132 131/131/131 130/130/130 
f 135/135/135 134/134/134 133/133/133 
f 138/138/138 137/137/137 136/136/136 
f 141/141/141 140/140/140 139/139/139 
f 144/144/144 143/143/143 142/142/142 
f 147/147/147 146/146/146 145/145/145 
f 150/150/150 149/149/149 148/148/148 
f 153/153/153 152/152/152 151/151/151 
f 156/156/156 155/155/155 154/154/154 
f 159/159/159 158/158/158 157/157/157 
f 162/162/162 161/161/161 160/160/160 
f 165/165/165 164/164/164 163/163/163 
f 168/168/168 167/167/167 166/166/166 
f 171/171/171 170/170/170 169/169/169 
f 174/174/174 173/173/173 172/172/172 
f 177/177/177 176/176/176 175/175/175 
f 180/180/180 179/179/179 178/178/178 
f 183/183/183 182/182/182 181/181/181 
f 186/186/186 185/185/185 184/184/184 
f 189/189/189 188/188/188 187/187/187 
f 192/192/192 191/191/191 190/190/190 
f 195/195/195 194/194/194 193/193/193 
f 198/198/198 197/197/197 196/196/196 
f 201/201/201 200/200/200 199/199/199 
f 204/204/204 203/203/203 202/202/202 
f 207/207/207 206/206/206 205/205/205 
f 210/210/210 209/209/209 208/208/208 
f 213/213/213 212/212/212 211/211/211 
f 216/216/216 215/215/215 214/214/214 
f 219/219/219 218/218/218 217/217/217 
f 222/222/222 221/221/221 220/220/220 
f 225/225/225 224/224/224 223/223/223 
f 228/228/228 227/227/227 226/226/226 
f 231/231/231 230/230/230 229/229/229 
f 234/234/234 233/233/233 232/232/232 
f 237/237/237 236/236/236 235/235/235 
f 240/240/240 239/239/239 238/238/238 
f 243/243/243 242/242/242 241/241/241 
f 246/246/246 245/245/245 244/244/244 
f 249/249/249 248/248/248 247/247/247 
f 252/252/252 251/251/251 250/250/250 
f 255/255/255 254/254/254 253/253/253 
f 258/258/258 257/257/257 256/256/256 
f 261/261/261 260/260/260 259/259/259 
f 264/264/264 263/263/263 262/262/262 
f 267/267/267 266/266/266 265/265/265 
f 270/270/270 269/269/269 268/268/268 
f 273/273/273 272/272/272 271/271/271 
f 276/276/276 275/275/275 274/274/274 
f 279/279/279 278/278/278 277/277/277 
f 282/282/282 281/281/281 280/280/280 
f 285/285/285 284/284/284 283/283/283 
f 288/288/288 287/287/287 286/286/286 
f 291/291/291 290/290/290 289/289/289 
f 294/294/294 293/293/293 292/292/292 
f 297/297/297 296/296/296 295/295/295 
f 300/300/300 299/299/299 298/298/298 
f 303/303/303 302/302/302 301/301/301 
f 306/306/306 305/305/305 304/304/304 
f 309/309/309 308/308/308 307/307/307 
f 312/312/312 311/311/311 310/310/310 
f 315/315/315 314/314/314 313/313/313 
f 318/318/318 317/317/317 316/316/316 
f 321/321/321 320/320/320 319/319/319 
f 324/324/324 323/323/323 322/322/322 
f 327/327/327 326/326/326 325/325/325 
f 330/330/330 329/329/329 328/328/328 
f 333/333/333 332/332/332 331/331/331 
f 336/336/336 335/335/335 334/334/334 
f 339/339/339 338/338/338 337/337/337 
f 342/342/342 341/341/341 340/340/340 
f 345/345/345 344/344/344 343/343/343 
f 348/348/348 347/347/347 346/346/346 
f 351/351/351 350/350/350 349/349/349 
f 354/354/354 353/353/353 352/352/352 
f 357/357/357 356/356/356 355/355/355 
f 360/360/360 359/359/359 358/358/358 
f 363/363/363 362/362/362 361/361/361 
f 366/366/366 365/365/365 364/364/364 
f 369/369/369 368/368/368 367/367/367 
f 372/372/372 371/371/371 370/370/370 
f 375/375/375 374/374/374 373/373/373 
f 378/378/378 377/377/377 376/376/376 
f 381/381/381 380/380/380 379/379/379 
f 384/384/384 383/383/383 382/382/382 
f 387/387/387 386/386/386 385/385/385 
f 390/390/390 389/389/389 388/388/388 
f 393/393/393 392/392/392 391/391/391 
f 396/396/396 395/395/395 394/394/394 
f 399/399/399 398/398/398 397/397/397 
f 402/402/402 401/401/401 400/400/400 
f 405/405/405 404/404/404 403/403/403 
f 408/408/408 407/407/407 406/406/406 
f 411/411/411 410/410/410 409/409/409 
f 414/414/414 413/413/413 412/412/412 
f 417/417/417 416/416/416 415/415/415 
f 420/420/420 419/419/419 418/418/418 
f 423/423/423 422/422/422 421/421/421 
f 426/426/426 425/425/425 424/424/424 
f 429/429/429 428/428/428 427/427/427 
f 432/432/432 431/431/431 430/430/430 
f 435/435/435 434/434/434 433/433/433 
f 438/438/438 437/437/437 436/436/436 
f 441/441/441 440/440/440 439/439/439 
f 444/444/444 443/443/443 442/442/442 
f 447/447/447 446/446/446 445/445/445 
f 450/450/450 449/449/449 448/448/448 
f 453/453/453 452/452/452 451/451/451 
f 456/456/456 455/455/455 454/454/454 
f 459/459/459 458/458/458 457/457/457 
f 462/462/462 461/461/461 460/460/460 
f 465/465/465 464/464/464 463/463/463 
f 468/468/468 467/467/467 466/466/466 
f 471/471/471 470/470/470 469/469/469 
f 474/474/474 473/473/473 472/472/472 
f 477/477/477 476/476/476 475/475/475 
f 480/480/480 479/479/479 478/478/478 
f 483/483/483 482/482/482 481/481/481 
f 486/486/486 485/485/485 484/484/484 
f 489/489/489 488/488/488 487/487/487 
f 492/492/492 491/491/491 490/490/490 
f 495/495/495 494/494/494 493/493/493 
f 498/498/498 497/497/497 496/496/496 
f 501/501/501 500/500/500 499/499/499 
f 504/504/504 503/503/503 502/502/502 
f 507/507/507 506/506/506 505/505/505 
f 510/510/510 509/509/509 508/508/508 
f 513/513/513 512/512/512 511/511/511 
f 516/516/516 515/515/515 514/514/514 
f 519/519/519 518/518/518 517/517/517 
f 522/522/522 521/521/521 520/520/520 
f 525/525/525 524/524/524 523/523/523 
f 528/528/528 527/527/527 526/526/526 
f 531/531/531 530/530/530 529/529/529 
f 534/534/534 533/533/533 532/532/532 
f 537/537/537 536/536/536 535/535/535 
f 540/540/540 539/539/539 538/538/538 
f 543/543/543 542/542/542 541/541/541 
f 546/546/546 545/545/545 544/544/544 
f 549/549/549 548/548/548 547/547/547 
f 552/552/552 551/551/551 550/550/550 
f 555/555/555 554/554/554 553/553/553 
f 558/558/558 557/557/557 556/556/556 
f 561/561/561 560/560/560 559/559/559 
f 564/564/564 563/563/563 562/562/562 
f 567/567/567 566/566/566 565/565/565 
f 570/570/570 569/569/569 568/568/568 
f 573/573/573 572/572/572 571/571/571 
f 576/576/576 575/575/575 574/574/574 
f 579/579/579 578/578/578 577/577/577 
f 582/582/582 581/581/581 580/580/580 
f 585/585/585 584/584/584 583/583/583 
f 588/588/588 587/587/587 586/586/586 
f 591/591/591 590/590/590 589/589/589 
f 594/594/594 593/593/593 592/592/592 
f 597/597/597 596/596/596 595/595/595 
f 600/600/600 599/599/599 598/598/598 
f 603/603/603 602/602/602 601/601/601 
f 606/606/606 605/605/605 604/604/604 
f 609/609/609 608/608/608 607/607/607 
f 612/612/612 611/611/611 610/610/610 
f 615/615/615 614/614/614 613/613/613 
f 618/618/618 617/617/617 616/616/616 
f 621/621/621 620/620/620 619/619/619 
f 624/624/624 623/623/623 622/622/622 
f 627/627/627 626/626/626 625/625/625 
f 630/630/630 629/629/629 628/628/628 
f 633/633/633 632/632/632 631/631/631 
f 636/636/636 635/635/635 634/634/634 
f 639/639/639 638/638/638 637/637/637 
f 642/642/642 641/641/641 640/640/640 
f 645/645/645 644/644/644 643/643/643 
f 648/648/648 647/647/647 646/646/646 
f 651/651/651 650/650/650 649/649/649 
f 654/654/654 653/653/653 652/652/652 
f 657/657/657 656/656/656 655/655/655 
f 660/660/660 659/659/659 658/658/658 
f 663/663/663 662/662/662 661/661/661 
f 666/666/666 665/665/665 664/664/664 
f 669/669/669 668/668/668 667/667/667 
f 672/672/672 671/671/671 670/670/670 
f 675/675/675 674/674/674 673/673/673 
f 678/678/678 677/677/677 676/676/676 
f 681/681/681 680/680/680 679/679/679 
f 684/684/684 683/683/683 682/682/682 
f 687/687/687 686/686/686 685/685/685 
f 690/690/690 689/689/689 688/688/688 
f 693/693/693 692/692/692 691/691/691 
f 696/696/696 695/695/695 694/694/694 
f 699/699/699 698/698/698 697/697/697 
f 702/702/702 701/701/701 700/700/700 
f 705/705/705 704/704/704 703/703/703 
f 708/708/708 707/707/707 706/706/706 
f 711/711/711 710/710/710 709/709/709 
f 714/714/714 713/713/713 712/712/712 
f 717/717/717 716/716/716 715/715/715 
f 720/720/720 719/719/719 718/718/718 
f 723/723/723 722/722/722 721/721/721 
f 726/726/726 725/725/725 724/724/724 
f 729/729/729 728/728/728 727/727/727 
f 732/732/732 731/731/731 730/730/730 
f 735/735/735 734/734/734 733/733/733 
f 738/738/738 737/737/737 736/736/736 
f 741/741/741 740/740/740 739/739/739 
f 744/744/744 743/743/743 742/742/742 
f 747/747/747 746/746/746 745/745/745 
f 750/750/750 749/749/749 748/748/748 
f 753/753/753 752/752/752 751/751/751 
f 756/756/756 755/755/755 754/754/754 
f 759/759/759 758/758/758 757/757/757 
f 762/762/762 761/761/761 760/760/760 
f 765/765/765 764/764/764 763/763/763 
f 768/768/768 767/767/767 766/766/766 
f 771/771/771 770/770/770 769/769/769 
f 774/774/774 773/773/773 772/772/772 
f 777/777/777 776/776/776 775/775/775 
f 780/780/780 779/779/779 778/778/778 
f 783/783/783 782/782/782 781/781/781 
f 786/786/786 785/785/785 784/784/784 
f 789/789/789 788/788/788 787/787/787 
f 792/792/792 791/791/791 790/790/790 
f 795/795/795 794/794/794 793/793/793 
f 798/798/798 797/797/797 796/796/796 
f 801/801/801 800/800/800 799/799/799 
f 804/804/804 803/803/803 802/802/802 
f 807/807/807 806/806/806 805/805/805 
f 810/810/810 809/809/809 808/808/808 

