# Blender 4.0.0
# www.blender.org
mtllib cross.mtl
o cross
v 1.380335 0.403206 -0.500505
v 1.380335 12.399426 -0.500505
v 0.307694 0.403206 1.187524
v 0.307694 12.399426 1.187524
v -0.307694 0.403206 -1.573146
v -0.307694 12.399426 -1.573146
v -1.380335 0.403206 0.114884
v -1.380335 12.399426 0.114884
v 1.380335 14.803738 -0.500505
v 0.307694 14.803738 1.187524
v -1.380335 14.803738 0.114884
v -0.307694 14.803738 -1.573146
v 1.380335 20.560541 -0.500505
v 0.307694 20.560541 1.187524
v -1.380335 20.560541 0.114884
v -0.307694 20.560541 -1.573146
v -2.289429 12.399426 5.274654
v -3.977459 12.399426 4.202014
v -2.289429 14.803738 5.274654
v -3.977459 14.803738 4.202014
v 2.289429 12.399426 -5.660275
v 3.977459 12.399426 -4.587635
v 2.289429 14.803738 -5.660275
v 3.977459 14.803738 -4.587635
vn 0.8440 -0.0000 0.5363
vn -0.5363 -0.0000 0.8440
vn -0.8440 -0.0000 -0.5363
vn 0.5363 -0.0000 -0.8440
vn -0.0000 -1.0000 -0.0000
vn -0.0000 1.0000 -0.0000
vt 0.375000 0.000000
vt 0.625000 0.000000
vt 0.625000 0.250000
vt 0.375000 0.250000
vt 0.625000 0.500000
vt 0.375000 0.500000
vt 0.625000 0.750000
vt 0.375000 0.750000
vt 0.625000 1.000000
vt 0.375000 1.000000
vt 0.125000 0.500000
vt 0.125000 0.750000
vt 0.875000 0.500000
vt 0.875000 0.750000
s 0
usemtl Material.004
f 1/1/1 2/2/1 4/3/1 3/4/1
f 3/4/2 4/3/2 8/5/2 7/6/2
f 7/6/3 8/5/3 6/7/3 5/8/3
f 5/8/4 6/7/4 2/9/4 1/10/4
f 3/11/5 7/6/5 5/8/5 1/12/5
f 4/3/1 2/2/1 9/2/1 10/3/1
f 9/9/4 12/7/4 16/7/4 13/9/4
f 12/7/6 9/9/6 24/9/6 23/7/6
f 10/3/6 11/5/6 20/5/6 19/3/6
f 6/7/3 8/5/3 11/5/3 12/7/3
f 15/5/6 14/13/6 13/14/6 16/7/6
f 11/5/2 10/3/2 14/3/2 15/5/2
f 12/7/3 11/5/3 15/5/3 16/7/3
f 10/3/1 9/2/1 13/2/1 14/3/1
f 18/5/2 17/3/2 19/3/2 20/5/2
f 8/5/5 4/3/5 17/3/5 18/5/5
f 11/5/3 8/5/3 18/5/3 20/5/3
f 4/3/1 10/3/1 19/3/1 17/3/1
f 22/9/4 21/7/4 23/7/4 24/9/4
f 2/9/5 6/7/5 21/7/5 22/9/5
f 6/7/3 12/7/3 23/7/3 21/7/3
f 9/2/1 2/2/1 22/2/1 24/2/1
